<svg width="163" height="41" viewBox="0 0 163 41" fill="none" xmlns="http://www.w3.org/2000/svg">
<path d="M63.4712 10.624H66.9672C72.1432 10.624 76.4472 13.352 76.4472 18.976C76.4472 24.736 72.2312 27.512 66.9032 27.512H63.4712V10.624ZM65.5752 25.6H66.3192C70.6152 25.6 74.3192 24 74.3192 19.08C74.3192 14.16 70.5992 12.56 66.3192 12.56H65.5752V25.6Z" fill="white"/>
<path d="M83.1992 10.624H92.2712V12.544H85.3032V17.272H92.0712V19.2H85.3032V25.6H92.2712V27.528H83.1992V10.624Z" fill="white"/>
<path d="M99.1033 9.816L111.783 23.104V10.624H113.895V28.224L101.215 14.92V27.512H99.1033V9.816Z" fill="white"/>
<path d="M126.255 27.512H124.151V12.544H120.151V10.624H130.271V12.544H126.271L126.255 27.512Z" fill="white"/>
<path d="M136.999 23.28L135.079 27.512H132.815L140.879 9.912L148.943 27.512H146.679L144.759 23.28H136.999ZM140.879 14.48L137.879 21.312H143.879L140.879 14.48Z" fill="white"/>
<path d="M157.159 25.6H162.287V27.528H155.087V10.624H157.191L157.159 25.6Z" fill="white"/>
<path d="M7.69522 16.96C9.42322 18.704 11.3992 20.672 11.3992 23.672C11.3992 26.672 9.59922 29.184 8.63122 30.512L8.43922 30.776C7.53522 32.024 4.08722 35.44 3.94322 35.576L3.86322 35.656L2.41522 34.16C2.41522 34.16 7.96722 29.36 7.96722 24.696C7.96722 23.216 6.88722 21.496 4.67922 19.4C3.00722 17.816 0.199219 15.2 0.199219 11.696C0.199219 8.752 2.59922 4.84 7.25522 0.072L7.32722 0L8.99922 1.4C8.99922 1.4 3.32722 6.4 3.32722 10.344C3.32722 12.576 5.17522 14.432 6.79922 16.064L7.24722 16.512C7.39922 16.664 7.54322 16.8 7.69522 16.96Z" fill="white"/>
<path d="M13.0151 32.032H21.9431V30.968H15.1351V18.216H20.8791V17.152H15.1351V6.952H21.9431V5.888H13.0151V32.032Z" fill="white"/>
<path d="M33.1993 8.048C30.2793 6.192 24.8633 5.848 24.6313 5.84H24.4873V32H24.6873C24.6873 32 32.1193 31.872 35.8233 27.536C37.9266 25.1597 39.1099 22.109 39.1593 18.936V18.616C39.1993 16.12 38.4793 11.416 33.1993 8.048ZM26.5993 30.616V7.64C27.8633 7.76 36.9993 8.984 36.9993 19.024C36.9993 28.688 27.9113 30.4 26.5993 30.616Z" fill="white"/>
<path d="M49.2312 30.4L50.2472 30.088H50.3272L50.7992 29.952C50.8792 29.336 50.9512 28.72 51.0312 28.112L45.6232 5.888H43.6392L39.0872 31.872V32.032H40.3352L42.3992 20.56H46.9272L49.2312 30.4ZM42.5272 19.496L44.2792 9.32L46.7352 19.496H42.5272Z" fill="white"/>
<path d="M53.2312 34.4H53.1272H52.9992H52.7752C52.7352 34.4 52.6792 34.512 52.6792 34.8C52.6792 34.8 52.6792 34.8 52.7512 34.864C52.8766 34.9485 53.0183 35.0057 53.1672 35.032C53.1672 34.984 53.1672 34.92 53.1672 34.84C53.1919 34.7025 53.2322 34.5683 53.2872 34.44L53.2312 34.4Z" fill="white"/>
<path d="M53.2473 34.32L52.9993 34.04C52.8678 33.9041 52.7596 33.7473 52.6793 33.576C52.4591 33.5169 52.2343 33.4768 52.0073 33.456L52.2233 33.696L52.3833 33.872L52.5033 34C52.5687 34.0582 52.6253 34.1256 52.6713 34.2C52.7781 34.2345 52.8879 34.2587 52.9993 34.272L53.2473 34.32Z" fill="white"/>
<path d="M52.3193 33.976C52.1193 33.76 51.8712 33.488 51.8232 33.424C51.7684 33.3814 51.7007 33.3588 51.6312 33.36H51.5833C51.7838 33.581 52.0004 33.7869 52.2312 33.976C52.2935 34.023 52.3605 34.0632 52.4312 34.096L52.3193 33.976Z" fill="white"/>
<path d="M55.7032 33.552C55.7092 33.5015 55.7092 33.4505 55.7032 33.4C55.7032 33.232 55.7672 32.848 55.7832 32.672C55.5849 32.7675 55.4016 32.8915 55.2392 33.04C55.2466 33.1812 55.2466 33.3228 55.2392 33.464C55.2392 33.632 55.1992 33.832 55.1912 33.92C55.3832 33.8303 55.5569 33.7054 55.7032 33.552Z" fill="white"/>
<path d="M51.5513 33.36L51.5753 33.344L51.5513 33.36Z" fill="white"/>
<path d="M54.0953 34.448H53.9673H53.7993H53.4553C53.3772 34.6363 53.3313 34.8365 53.3193 35.04C53.6003 35.0836 53.8863 35.0836 54.1673 35.04C54.2038 34.8341 54.2172 34.6248 54.2073 34.416L54.0953 34.448Z" fill="white"/>
<path d="M53.4632 34.4C53.668 34.4222 53.8745 34.4222 54.0792 34.4H54.1832C54.1832 34.224 53.9992 33.752 53.9592 33.64C53.9192 33.528 53.2792 33.64 53.0392 33.64H52.8232C53.0103 33.9143 53.2247 34.169 53.4632 34.4Z" fill="white"/>
<path d="M52.4312 34.352C52.3667 34.3747 52.3089 34.4132 52.2632 34.464C52.3617 34.5816 52.4746 34.6864 52.5992 34.776C52.5934 34.6854 52.5934 34.5946 52.5992 34.504C52.6128 34.4479 52.6344 34.394 52.6632 34.344L52.4312 34.352Z" fill="white"/>
<path d="M55.8552 33.36C55.9598 33.2853 56.0449 33.1865 56.1032 33.072V32.96C56.1032 32.776 56.2072 32.376 56.2392 32.16C56.111 32.2975 56.0008 32.4507 55.9112 32.616C55.9352 32.688 55.8872 33.136 55.8552 33.36Z" fill="white"/>
<path d="M55.0392 34.064C55.0464 34.0324 55.0464 33.9996 55.0392 33.968C55.0432 33.7938 55.0593 33.62 55.0872 33.448C55.0872 33.328 55.0872 33.192 55.0872 33.112C54.9592 33.112 54.6552 33.288 54.4472 33.376L54.0312 33.56C54.028 33.6053 54.028 33.6507 54.0312 33.696C54.0312 33.784 54.0872 33.888 54.1112 33.936L54.2072 34.304C54.3254 34.2907 54.4412 34.2611 54.5512 34.216C54.7172 34.1766 54.8803 34.1258 55.0392 34.064Z" fill="white"/>
<path d="M56.0312 33.376C56.0312 33.376 55.9912 33.376 55.8872 33.504L55.7832 33.656C55.8928 33.7397 55.9828 33.8461 56.0472 33.968C56.1352 33.968 56.2392 33.608 56.2552 33.488C56.1927 33.4301 56.115 33.3913 56.0312 33.376Z" fill="white"/>
<path d="M56.9992 28.952L58.2232 28.72L59.8792 28.416L61.3512 28.136V28.184L61.0392 28.6L59.6872 30.416L59.5912 30.544L58.7032 31.736L57.8392 32.896C57.818 32.931 57.8068 32.9711 57.8068 33.012C57.8068 33.0529 57.818 33.093 57.8392 33.128L59.3192 35.872L59.7592 36.672L60.2632 37.6L60.6472 37.928L60.8552 38.296H60.7672L59.4312 37.832L57.7592 37.248L56.1992 36.704L55.2232 36.36C55.1845 36.3462 55.1426 36.3441 55.1027 36.3541C55.0628 36.364 55.0268 36.3856 54.9992 36.416L54.1512 37.288L53.5112 37.96L52.8472 38.648L52.5672 38.944L51.9512 39.576L51.1512 40.376L51.0152 40.512L50.8632 40.672V39.872V38.48V37.224V36.12V35.4V34.792C50.8637 34.7498 50.8519 34.7084 50.8291 34.6728C50.8064 34.6373 50.7737 34.6092 50.7352 34.592L48.3352 33.44L45.3672 32L47.3112 31.432L50.4232 30.488H50.5112L51.1112 30.304C51.1523 30.2953 51.1894 30.2734 51.2169 30.2416C51.2443 30.2098 51.2606 30.1699 51.2632 30.128L51.7912 26.072L51.9352 24.944C51.9592 24.728 52.0152 24.504 52.0152 24.288L52.2552 24.624C52.6152 25.176 53.0232 25.728 53.4152 26.272V26.328L54.1512 27.384L55.0792 28.696L55.3832 29.128C55.4063 29.1626 55.4392 29.1894 55.4777 29.2051C55.5162 29.2208 55.5585 29.2246 55.5992 29.216L56.9992 28.952Z" fill="white"/>
<path d="M55.7273 33.76C55.5355 33.8405 55.3595 33.9543 55.2073 34.096C55.2767 34.2589 55.3625 34.4144 55.4633 34.56C55.6676 34.4431 55.8405 34.2784 55.9673 34.08C55.9157 33.9547 55.8331 33.8446 55.7273 33.76Z" fill="white"/>
<path d="M55.0072 34.208L54.6552 34.328H54.5832L54.4632 34.376H54.3672C54.3499 34.5783 54.3499 34.7817 54.3672 34.984C54.7248 34.9129 55.0647 34.7715 55.3672 34.568C55.3124 34.4048 55.2284 34.253 55.1192 34.12L55.0072 34.208Z" fill="white"/>
</svg>
