<svg width="170" height="56" viewBox="0 0 170 56" fill="none" xmlns="http://www.w3.org/2000/svg">
<g clip-path="url(#clip0_1702_1952)">
<path fill-rule="evenodd" clip-rule="evenodd" d="M2.39789 50.087C2.39789 50.6175 2.39789 51.1143 2.39789 51.5815C2.39789 52.0488 2.3861 52.462 2.37514 52.8323C2.36417 53.2026 2.34389 53.507 2.31522 53.7525C2.29685 53.9054 2.2687 54.0569 2.2309 54.2062C2.20384 54.3246 2.15305 54.4362 2.08161 54.5343C2.01794 54.6229 1.92238 54.6833 1.81507 54.703C1.73747 54.7199 1.64643 54.7376 1.54522 54.7511C1.42905 54.7647 1.31214 54.7714 1.19518 54.7713C1.12144 54.7657 1.04747 54.7787 0.980104 54.8093C0.961741 54.8185 0.946329 54.8327 0.935731 54.8504C0.925133 54.868 0.919745 54.8882 0.920185 54.9088C0.919434 54.9374 0.92763 54.9656 0.943658 54.9893C0.959687 55.013 0.982813 55.0312 1.00965 55.0412C1.09046 55.0714 1.17642 55.0852 1.26261 55.0817C1.43804 55.0817 1.63038 55.0817 1.83617 55.0724L2.44762 55.0555C2.65088 55.0496 2.83221 55.0437 2.99245 55.0378C3.1527 55.0319 3.27918 55.0294 3.36268 55.0294C3.43184 55.0294 3.5516 55.0294 3.72703 55.0378C3.90246 55.0463 4.10828 55.0496 4.3495 55.0555L5.10858 55.0724C5.37509 55.0783 5.63649 55.0817 5.88866 55.0817C5.97486 55.0851 6.06092 55.0714 6.14173 55.0412C6.16848 55.0311 6.19142 55.013 6.20731 54.9892C6.22319 54.9655 6.23121 54.9373 6.23027 54.9088C6.231 54.8891 6.22662 54.8697 6.2176 54.8522C6.20859 54.8348 6.19522 54.82 6.17879 54.8093C6.13252 54.7802 6.07811 54.7669 6.02364 54.7713C5.95195 54.7713 5.86851 54.7713 5.77068 54.7629L5.46614 54.7367L5.17941 54.7021C5.03404 54.6882 4.8966 54.6292 4.78633 54.5334C4.69291 54.4437 4.62561 54.3303 4.59154 54.2054C4.54809 54.0574 4.51986 53.9054 4.50722 53.7516C4.47855 53.5082 4.45855 53.2014 4.4473 52.8315C4.43549 52.4612 4.42708 52.042 4.42455 51.5748C4.42202 51.1075 4.42455 50.6057 4.42455 50.0693V49.8281C4.42239 49.8082 4.42463 49.7881 4.43104 49.7692C4.43744 49.7503 4.44793 49.7329 4.46172 49.7185C4.49083 49.6975 4.52622 49.6874 4.56199 49.6898L6.05905 49.7252C6.11596 49.7226 6.17297 49.7292 6.2278 49.7446C6.28333 49.764 6.33218 49.7988 6.36864 49.845C6.42599 49.9116 6.51454 50.0288 6.63261 50.1916C6.75069 50.3544 6.88563 50.5509 7.04587 50.7744C7.20612 50.9979 7.37309 51.2358 7.55189 51.4854C7.7307 51.735 7.90448 51.9796 8.07737 52.22C8.39534 52.6611 8.68883 53.0465 8.95197 53.3763C9.18521 53.673 9.43887 53.9532 9.71106 54.2146C9.92878 54.4239 10.1726 54.6042 10.4364 54.7511C10.5834 54.8309 10.7383 54.8953 10.8985 54.9434C11.0859 54.9964 11.2779 55.0308 11.472 55.0462C11.693 55.0656 11.9595 55.0775 12.2783 55.0775H13.9137C13.9956 55.0807 14.0774 55.0687 14.1549 55.042C14.1816 55.0309 14.2042 55.0116 14.2193 54.987C14.2345 54.9623 14.2414 54.9334 14.2392 54.9045C14.24 54.8849 14.2358 54.8654 14.2267 54.848C14.2177 54.8305 14.2043 54.8157 14.1878 54.805C14.1416 54.776 14.087 54.7626 14.0326 54.7671C13.9588 54.7673 13.885 54.7636 13.8116 54.7561C13.7315 54.7468 13.643 54.7325 13.5511 54.7156C13.4853 54.7047 13.3933 54.6844 13.2752 54.6532C13.1306 54.6077 12.9896 54.5513 12.8535 54.4845C12.6589 54.3853 12.4727 54.2702 12.2969 54.1404C12.0557 53.9609 11.83 53.7615 11.6222 53.5442C11.1162 53.0069 10.5603 52.3634 9.9497 51.6043C9.33908 50.8452 8.64998 49.9833 7.8867 49.0193C8.39015 48.6245 8.84744 48.1741 9.24972 47.6766C9.55454 47.2976 9.79313 46.8699 9.95557 46.4115C10.0939 46.0091 10.163 45.5862 10.1597 45.1607C10.1596 44.8871 10.121 44.6148 10.045 44.3519C9.97555 44.1145 9.87844 43.886 9.75574 43.6713C9.64907 43.4831 9.5221 43.3072 9.37707 43.1467C9.26177 43.0174 9.13177 42.9019 8.98986 42.8026C8.68383 42.5964 8.34943 42.4359 7.99717 42.326C7.64551 42.2192 7.28426 42.1472 6.91852 42.111C6.5541 42.0763 6.18812 42.0599 5.82205 42.0621C5.68458 42.0621 5.51251 42.0621 5.29997 42.0713C5.08743 42.0806 4.86652 42.0823 4.62531 42.0882L3.94293 42.1059C3.72477 42.1115 3.54123 42.1144 3.39222 42.1144C3.30029 42.1144 3.16793 42.1143 2.99925 42.1059L2.41982 42.0882C2.20222 42.0831 1.97528 42.0747 1.73744 42.0713C1.4996 42.068 1.26428 42.0621 1.03488 42.0621C0.938147 42.0557 0.841087 42.0665 0.748148 42.0941C0.72121 42.1013 0.697496 42.1174 0.680816 42.1397C0.664135 42.162 0.655454 42.1894 0.65621 42.2172C0.654753 42.2431 0.661139 42.2687 0.674535 42.2909C0.687932 42.313 0.707704 42.3305 0.731263 42.3412C0.801403 42.3643 0.875107 42.3749 0.948909 42.3724C1.07542 42.3724 1.20186 42.3724 1.325 42.3834C1.42458 42.3892 1.52362 42.4027 1.6211 42.4239C1.77809 42.4488 1.92724 42.5094 2.05711 42.601C2.16167 42.6812 2.23959 42.7912 2.28063 42.9164C2.32952 43.0745 2.35645 43.2385 2.36072 43.4039C2.36663 43.5102 2.37253 43.6249 2.37843 43.7413C2.38434 43.8577 2.38692 44.0053 2.38945 44.1714C2.39198 44.3376 2.38945 44.5476 2.38945 44.7947C2.38945 45.0418 2.38945 45.353 2.38945 45.7224V50.0828L2.39789 50.087ZM4.42877 43.1855C4.42506 43.13 4.4358 43.0745 4.45997 43.0244C4.48871 42.9815 4.53277 42.9514 4.5831 42.94C4.70035 42.9094 4.82053 42.891 4.94159 42.8852C5.09677 42.8734 5.27893 42.8717 5.49569 42.8717C5.71982 42.8711 5.94294 42.9018 6.15861 42.9628C6.40707 43.0315 6.64387 43.137 6.86117 43.2757C7.10457 43.4303 7.31914 43.6261 7.49537 43.8543C7.70015 44.1253 7.85577 44.4302 7.95506 44.755C8.0769 45.1655 8.13579 45.592 8.12967 46.0201C8.13479 46.4296 8.08457 46.8378 7.98039 47.2338C7.90234 47.5332 7.77645 47.818 7.60759 48.0772C7.47496 48.2797 7.30792 48.4575 7.11413 48.6026C7.02118 48.6728 6.92013 48.7314 6.81309 48.7772C6.69572 48.8249 6.57217 48.8559 6.44616 48.8692C6.26209 48.8882 6.07711 48.897 5.89206 48.8953C5.74868 48.8953 5.59693 48.8902 5.44174 48.8776C5.28988 48.8663 5.13872 48.8471 4.98884 48.8202C4.85168 48.7976 4.71628 48.7649 4.58392 48.7224C4.53123 48.7051 4.48716 48.6683 4.46079 48.6195C4.43562 48.5537 4.42499 48.4832 4.42959 48.4129V43.1838L4.42877 43.1855Z" fill="white"/>
<path fill-rule="evenodd" clip-rule="evenodd" d="M15.0514 50.8275C15.0514 51.2779 15.0514 51.6996 15.0514 52.0926C15.0514 52.4857 15.0431 52.8441 15.0347 53.157C15.0262 53.4699 15.0084 53.7331 14.9857 53.9422C14.9725 54.1223 14.9299 54.299 14.8592 54.4651C14.8298 54.5299 14.7852 54.5867 14.7293 54.6307C14.6734 54.6747 14.6077 54.7047 14.5378 54.7182C14.4604 54.7373 14.3819 54.7509 14.3026 54.7586C14.2182 54.7671 14.1162 54.7696 14.004 54.7696C13.936 54.7651 13.8684 54.7832 13.8117 54.8211C13.7961 54.8332 13.7836 54.8489 13.7751 54.8667C13.7666 54.8846 13.7624 54.9042 13.7628 54.9239C13.7625 54.9483 13.7695 54.9723 13.7828 54.9927C13.7962 55.0131 13.8153 55.0291 13.8378 55.0387C13.9063 55.0685 13.9808 55.0824 14.0555 55.0791C14.2132 55.0791 14.3802 55.0791 14.5615 55.0673C14.7428 55.0555 14.9233 55.0538 15.1063 55.0437C15.2893 55.0336 15.4563 55.0437 15.6123 55.0353C15.7684 55.0269 15.8823 55.0268 15.9708 55.0268C16.1943 55.0268 16.4499 55.0268 16.7392 55.0378C17.0285 55.0488 17.3556 55.0522 17.7259 55.0606C18.0961 55.069 18.5095 55.0892 18.9708 55.0985C19.4322 55.1078 19.9458 55.112 20.5142 55.112C20.6605 55.1159 20.807 55.1113 20.9528 55.0985C21.042 55.0944 21.1271 55.0599 21.194 55.0007C21.2594 54.9246 21.3039 54.8327 21.323 54.7342C21.3528 54.6258 21.3759 54.5156 21.3922 54.4044C21.415 54.2602 21.4378 54.1058 21.458 53.9388C21.4782 53.7719 21.4951 53.6116 21.5095 53.4665C21.5238 53.3215 21.5296 53.2026 21.5296 53.1157C21.5328 53.0388 21.5251 52.9619 21.5069 52.8871C21.5036 52.8578 21.4905 52.8305 21.4696 52.8097C21.4488 52.7888 21.4215 52.7757 21.3922 52.7724C21.3705 52.7709 21.3487 52.7751 21.3291 52.7848C21.3095 52.7944 21.293 52.8091 21.2809 52.8272C21.2512 52.8796 21.2306 52.9367 21.2202 52.9959C21.1889 53.2418 21.1132 53.4798 20.9967 53.6985C20.898 53.8687 20.7472 54.0026 20.5665 54.0805C20.419 54.1403 20.265 54.1825 20.1076 54.2062C19.9383 54.2321 19.7677 54.2492 19.5966 54.2577C19.4279 54.2661 19.2728 54.2695 19.1378 54.2695C18.7321 54.2815 18.3263 54.2496 17.9275 54.1742C17.6771 54.1343 17.4504 54.0033 17.2907 53.8064C17.1507 53.5786 17.0808 53.3146 17.0899 53.0474C17.0899 52.9361 17.0841 52.7859 17.0816 52.597C17.0791 52.4081 17.0816 52.2065 17.0816 51.9889C17.0816 51.7713 17.0816 51.5672 17.0816 51.3665C17.0816 51.1657 17.0816 51.008 17.0816 50.879V49.7083C17.0806 49.6713 17.0866 49.6344 17.0993 49.5995C17.1042 49.5855 17.1135 49.5734 17.1258 49.565C17.1381 49.5567 17.1527 49.5525 17.1676 49.5532C17.2519 49.5532 17.3683 49.5532 17.5353 49.5532C17.7023 49.5532 17.882 49.5599 18.0886 49.565C18.2952 49.57 18.4959 49.5734 18.6967 49.5785C18.8974 49.5835 19.0754 49.5903 19.2272 49.5987C19.379 49.6071 19.4853 49.6097 19.5426 49.619C19.6986 49.6277 19.8519 49.6636 19.9955 49.7252C20.0967 49.7685 20.186 49.8353 20.2561 49.92C20.3162 49.9995 20.3601 50.0901 20.3852 50.1866C20.4024 50.2785 20.4128 50.3715 20.4164 50.4649C20.4223 50.5568 20.4307 50.6428 20.4366 50.7179C20.4358 50.7333 20.4382 50.7488 20.4436 50.7633C20.4489 50.7778 20.4572 50.791 20.4678 50.8022C20.482 50.8153 20.4989 50.8251 20.5172 50.831C20.5355 50.837 20.555 50.839 20.5741 50.8368C20.5946 50.8371 20.6146 50.8318 20.6323 50.8216C20.65 50.8113 20.6645 50.7965 20.6744 50.7786C20.6981 50.7382 20.7136 50.6935 20.72 50.6471C20.7255 50.6014 20.7283 50.5555 20.7285 50.5096C20.7285 50.4809 20.7284 50.4252 20.7343 50.3552C20.7402 50.2852 20.7428 50.1866 20.7512 50.0913C20.7596 49.996 20.7631 49.8897 20.7715 49.7893C20.7799 49.689 20.7891 49.6029 20.7975 49.5287C20.8262 49.2841 20.849 49.0893 20.8667 48.9434C20.8844 48.7975 20.8979 48.6853 20.9064 48.606C20.9129 48.5568 20.9169 48.5072 20.9182 48.4576C20.9197 48.4184 20.9074 48.3799 20.8836 48.3488C20.8741 48.3351 20.8615 48.3238 20.8469 48.3158C20.8322 48.3077 20.816 48.3031 20.7993 48.3024C20.7601 48.3072 20.7242 48.3268 20.6989 48.3572C20.6643 48.3943 20.6146 48.4416 20.5581 48.4922C20.4825 48.5705 20.3858 48.6253 20.2798 48.6499C20.1336 48.6837 19.9849 48.7057 19.8352 48.7157C19.7635 48.7207 19.6371 48.7275 19.4591 48.7334C19.2812 48.7393 19.0804 48.7418 18.8536 48.7418C18.6267 48.7418 18.3948 48.7485 18.1679 48.7485C17.941 48.7485 17.7343 48.7485 17.5597 48.7485H17.1836C17.1665 48.7503 17.1493 48.7469 17.1342 48.7386C17.1191 48.7303 17.107 48.7176 17.0993 48.7022C17.0843 48.6679 17.0774 48.6307 17.079 48.5934V44.9794C17.077 44.944 17.0861 44.9089 17.1052 44.879C17.1135 44.8663 17.1251 44.856 17.1387 44.8494C17.1524 44.8427 17.1677 44.8398 17.1828 44.8411C17.2486 44.8411 17.3632 44.8411 17.5201 44.8411C17.677 44.8411 17.8677 44.847 18.0743 44.852C18.2809 44.8571 18.49 44.8605 18.6967 44.8664C18.9033 44.8723 19.0838 44.8773 19.239 44.8858C19.3942 44.8942 19.4995 44.8976 19.5544 44.906C19.7481 44.9174 19.9394 44.9552 20.1229 45.0182C20.2327 45.0537 20.3315 45.1171 20.4096 45.2021C20.4686 45.274 20.5169 45.3541 20.553 45.4399C20.583 45.5009 20.6051 45.5655 20.6188 45.6322C20.6319 45.6968 20.6414 45.7622 20.6474 45.8279C20.6533 45.8877 20.6559 45.9366 20.6559 45.9737C20.6527 46.0215 20.6605 46.0694 20.6786 46.1138C20.6882 46.1306 20.7024 46.1442 20.7197 46.1529C20.737 46.1616 20.7565 46.165 20.7757 46.1627C20.7942 46.1624 20.8122 46.1579 20.8286 46.1494C20.845 46.1409 20.8593 46.1287 20.8701 46.1138C20.8934 46.0838 20.9109 46.0498 20.9216 46.0134C20.9334 45.9763 20.9418 45.9451 20.9478 45.9223C20.9562 45.8759 20.9646 45.8101 20.9739 45.7207C20.9832 45.6313 20.9907 45.5352 20.9967 45.4348C21.0026 45.3345 21.0109 45.2366 21.0168 45.1506C21.0227 45.0646 21.0312 44.9979 21.0337 44.9583C21.0455 44.7373 21.0624 44.5619 21.0801 44.4371C21.0979 44.3122 21.1173 44.2153 21.1316 44.1554C21.1441 44.1085 21.152 44.0604 21.1552 44.012C21.1567 43.979 21.1497 43.9462 21.1349 43.9167C21.1267 43.9021 21.1142 43.8902 21.0992 43.8827C21.0842 43.8752 21.0673 43.8724 21.0506 43.8745C21.0111 43.8781 20.9724 43.8878 20.9359 43.9032C20.8947 43.9194 20.8524 43.9327 20.8094 43.9428C20.7461 43.9513 20.6601 43.9656 20.5488 43.9858C20.4375 44.0061 20.3134 44.0171 20.1734 44.0289C20.122 44.0289 19.9955 44.0348 19.7998 44.0348C19.6041 44.0348 19.3638 44.0348 19.0795 44.0348C18.7953 44.0348 18.4942 44.0348 18.1788 44.0348C17.8634 44.0348 17.5564 44.0348 17.2603 44.0348C16.9643 44.0348 16.7122 44.0348 16.4946 44.0348H16.0417C15.8958 44.0348 15.7042 44.0348 15.4597 44.0263L14.6796 44.0086C14.3987 44.0036 14.1254 44.0002 13.8563 44.0002C13.771 43.9965 13.6857 44.0062 13.6034 44.0289C13.5435 44.0516 13.5139 44.0862 13.5139 44.1377C13.5137 44.1616 13.5204 44.1852 13.5331 44.2055C13.5458 44.2258 13.564 44.2421 13.5857 44.2524C13.6434 44.2814 13.7075 44.2953 13.772 44.2929C13.8867 44.2929 14.0015 44.2929 14.1094 44.3038C14.1976 44.3097 14.285 44.3232 14.3708 44.3443C14.5038 44.3754 14.6308 44.4278 14.747 44.4995C14.8367 44.5578 14.9067 44.6419 14.9478 44.7407C14.9966 44.867 15.0228 45.0009 15.0253 45.1363C15.0253 45.2257 15.0312 45.3227 15.0337 45.423C15.0363 45.5234 15.0338 45.6474 15.0397 45.7874C15.0456 45.9274 15.0397 46.1062 15.0397 46.3179V50.8157L15.0514 50.8275Z" fill="white"/>
<path fill-rule="evenodd" clip-rule="evenodd" d="M25.3932 47.1098H25.4447C25.5223 47.1781 25.6682 47.3274 25.8892 47.5602L26.7064 48.4205C27.0337 48.7578 27.3895 49.1289 27.7792 49.5279C28.1688 49.9268 28.5737 50.3232 28.9895 50.7247C29.3882 51.1115 29.7975 51.5051 30.2175 51.9054C30.6333 52.3069 31.0432 52.6974 31.4396 53.0761C31.836 53.4547 32.2088 53.8073 32.547 54.1252C32.8852 54.4432 33.1753 54.7156 33.4132 54.9408C33.494 55.0236 33.5856 55.0951 33.6856 55.1534C33.7903 55.2162 33.9101 55.2497 34.0322 55.2504C34.0675 55.2488 34.1016 55.2379 34.1313 55.2188C34.1609 55.1997 34.1849 55.173 34.2009 55.1416C34.2555 55.0315 34.281 54.9092 34.2751 54.7865L34.4439 45.5605C34.4428 45.3412 34.4628 45.1223 34.5037 44.9069C34.5254 44.7705 34.5838 44.6425 34.6724 44.5366C34.7603 44.4472 34.8717 44.3846 34.9937 44.3561C35.0744 44.3325 35.1571 44.3169 35.2408 44.3097C35.3135 44.3034 35.3864 44.3015 35.4593 44.3038C35.5272 44.3059 35.5944 44.2899 35.6541 44.2574C35.6732 44.2464 35.6891 44.2306 35.7002 44.2115C35.7113 44.1924 35.7173 44.1707 35.7174 44.1486C35.7182 44.1213 35.709 44.0947 35.6917 44.0736C35.6743 44.0525 35.6498 44.0384 35.6229 44.0339C35.5402 44.0136 35.4548 44.0059 35.3698 44.0112C34.997 44.0112 34.6783 44.0162 34.4177 44.0289C34.1571 44.0415 33.9816 44.0457 33.8896 44.0457C33.7775 44.0457 33.6232 44.0457 33.4224 44.0373L32.7426 44.0196C32.4896 44.0145 32.2291 44.0112 31.9625 44.0112C31.8711 44.0067 31.7795 44.0143 31.6901 44.0339C31.6617 44.0373 31.6354 44.0507 31.6159 44.0717C31.5964 44.0928 31.5851 44.12 31.5839 44.1486C31.5831 44.1693 31.587 44.1899 31.5955 44.2088C31.604 44.2276 31.6168 44.2443 31.6328 44.2574C31.6909 44.2915 31.7577 44.3076 31.825 44.3038C31.8967 44.3038 31.9802 44.3038 32.0713 44.3038C32.1672 44.3056 32.2631 44.3132 32.3581 44.3266C32.4463 44.3359 32.533 44.356 32.6162 44.3865C32.729 44.4249 32.8298 44.4921 32.9088 44.5813C32.9922 44.6983 33.0481 44.8327 33.0724 44.9743C33.112 45.2064 33.132 45.4414 33.1323 45.6769L33.2875 52.1837H33.2184C33.1695 52.1373 33.0606 52.0311 32.8911 51.8599C32.7216 51.6887 32.5149 51.4778 32.2686 51.2282L31.4801 50.4303C31.2018 50.1495 30.9294 49.8737 30.6628 49.6071C30.3963 49.3406 30.1568 49.1011 29.9484 48.8962C29.504 48.4635 29.0679 48.0334 28.6344 47.6024C28.2009 47.1714 27.791 46.7674 27.409 46.3811C27.0269 45.9949 26.6777 45.644 26.3732 45.337C26.0688 45.03 25.82 44.777 25.6302 44.5779C25.4405 44.3789 25.3232 44.2684 25.2836 44.2279C25.1545 44.0955 25.0365 43.9816 24.9302 43.8906C24.8494 43.8093 24.7431 43.7584 24.6291 43.7463C24.5877 43.7496 24.5482 43.7647 24.5151 43.7898C24.4821 43.815 24.457 43.849 24.4427 43.888C24.391 43.9999 24.3665 44.1224 24.3711 44.2456L24.2335 52.92C24.2335 53.3417 24.2159 53.6791 24.1931 53.9245C24.1855 54.1138 24.1408 54.2998 24.0615 54.4719C24.0312 54.5275 23.9894 54.576 23.939 54.6142C23.8885 54.6525 23.8305 54.6796 23.7688 54.6937C23.6555 54.7197 23.5405 54.738 23.4247 54.7485C23.3016 54.757 23.1869 54.762 23.0807 54.762C23.0212 54.7615 22.9628 54.7776 22.9119 54.8084C22.8925 54.8197 22.8762 54.8354 22.8641 54.8544C22.8521 54.8733 22.8448 54.8949 22.8428 54.9172C22.8419 54.9462 22.8507 54.9746 22.8679 54.998C22.885 55.0214 22.9094 55.0384 22.9372 55.0462C23.0196 55.0689 23.1051 55.0777 23.1903 55.0724C23.4509 55.0724 23.6964 55.0665 23.9275 55.0572C24.1586 55.0479 24.3491 55.0437 24.5128 55.0344C24.6764 55.0252 24.7767 55.0209 24.8256 55.0209C24.9665 55.0209 25.2043 55.0319 25.5425 55.0471C25.8807 55.0623 26.294 55.0699 26.7874 55.0732C26.8729 55.0774 26.9585 55.0668 27.0404 55.042C27.0679 55.0351 27.0922 55.0191 27.1094 54.9966C27.1265 54.9741 27.1356 54.9464 27.1349 54.918C27.1348 54.896 27.1288 54.8743 27.1177 54.8552C27.1066 54.8361 27.0907 54.8203 27.0716 54.8092C27.0124 54.7755 26.9448 54.7594 26.8768 54.7629C26.7464 54.7631 26.616 54.7564 26.4863 54.7426C26.3498 54.7293 26.2152 54.701 26.0849 54.6583C25.9798 54.6214 25.8905 54.5496 25.8318 54.455C25.7414 54.3057 25.681 54.1401 25.6539 53.9675C25.6025 53.6728 25.5742 53.3744 25.5695 53.0752L25.4008 47.1031L25.3932 47.1098Z" fill="white"/>
<path fill-rule="evenodd" clip-rule="evenodd" d="M40.6007 48.2451V46.3297C40.6007 46.1172 40.6007 45.9417 40.6007 45.7992C40.6007 45.6567 40.6007 45.5352 40.6066 45.4348C40.6125 45.3345 40.6125 45.2375 40.615 45.1481C40.6124 44.9507 40.661 44.7561 40.7558 44.583C40.8074 44.5176 40.8722 44.4637 40.9458 44.4248C41.0194 44.3859 41.1003 44.3628 41.1834 44.357C41.2753 44.3392 41.3521 44.3257 41.4103 44.3165C41.4778 44.3084 41.5456 44.3048 41.6136 44.3055C41.6663 44.3073 41.7183 44.2932 41.7628 44.265C41.7815 44.2525 41.7967 44.2354 41.8067 44.2153C41.8168 44.1952 41.8214 44.1728 41.8202 44.1503C41.8206 44.1259 41.813 44.102 41.7986 44.0824C41.7841 44.0627 41.7635 44.0484 41.7401 44.0415C41.6599 44.0181 41.5764 44.0084 41.493 44.0129C41.364 44.0129 41.2096 44.0129 41.0283 44.0179C40.8469 44.023 40.6614 44.0238 40.4691 44.0297C40.2768 44.0356 40.0988 44.0381 39.936 44.0407C39.7732 44.0432 39.6434 44.0466 39.5489 44.0466C39.423 44.0466 39.2451 44.0438 39.0151 44.0382L38.256 44.0204C37.9777 44.0154 37.7052 44.012 37.4354 44.012C37.35 44.0084 37.2647 44.018 37.1824 44.0407C37.1225 44.0634 37.0938 44.098 37.0938 44.1495C37.0935 44.1734 37.1002 44.197 37.1129 44.2173C37.1256 44.2376 37.1439 44.2539 37.1655 44.2642C37.2233 44.2931 37.2873 44.307 37.3519 44.3047C37.4666 44.3047 37.5813 44.3047 37.6892 44.3156C37.7774 44.3215 37.8648 44.3351 37.9506 44.3561C38.0836 44.3872 38.2107 44.4396 38.3268 44.5113C38.4166 44.5695 38.4866 44.6536 38.5276 44.7525C38.5766 44.8787 38.6028 45.0127 38.6051 45.1481C38.6051 45.2375 38.6111 45.3345 38.6145 45.4348C38.6179 45.5352 38.6145 45.6592 38.6204 45.7992C38.6263 45.9392 38.6204 46.118 38.6204 46.3297V50.8275C38.6204 51.2779 38.6204 51.6996 38.6204 52.0926C38.6204 52.4857 38.6119 52.8416 38.6035 53.1545C38.595 53.4674 38.5773 53.7305 38.5546 53.9397C38.5414 54.1198 38.4986 54.2964 38.428 54.4626C38.3985 54.5273 38.354 54.5841 38.2981 54.6281C38.2422 54.6721 38.1766 54.7021 38.1067 54.7156C38.0294 54.7348 37.9507 54.7483 37.8714 54.7561C37.787 54.7646 37.685 54.7671 37.5728 54.7671C37.5048 54.7625 37.4372 54.7806 37.3806 54.8185C37.365 54.8307 37.3523 54.8463 37.3438 54.8642C37.3353 54.882 37.3312 54.9016 37.3317 54.9214C37.3315 54.9457 37.3384 54.9695 37.3516 54.9899C37.3647 55.0103 37.3836 55.0264 37.4058 55.0361C37.4746 55.0661 37.5493 55.0799 37.6243 55.0766C37.7761 55.0766 37.9456 55.0766 38.1303 55.0673L38.6785 55.0505L39.1779 55.0328C39.3271 55.0269 39.4477 55.0243 39.5362 55.0243C39.6248 55.0243 39.7691 55.0243 39.9378 55.0328L40.5146 55.0505L41.1801 55.0673C41.4095 55.0735 41.6305 55.0766 41.843 55.0766C41.9149 55.0793 41.9864 55.0655 42.0521 55.0361C42.076 55.0276 42.0968 55.0121 42.1119 54.9917C42.1269 54.9712 42.1354 54.9468 42.1365 54.9214C42.1352 54.9011 42.1294 54.8813 42.1195 54.8635C42.1096 54.8457 42.0957 54.8303 42.0791 54.8185C42.0364 54.7855 41.9839 54.7674 41.9298 54.7671C41.8632 54.7671 41.789 54.7671 41.7005 54.7612C41.6119 54.7553 41.5225 54.7527 41.4314 54.7435C41.3403 54.7342 41.2627 54.7266 41.1902 54.7148C41.1085 54.7044 41.0299 54.6764 40.96 54.6327C40.8901 54.589 40.8306 54.5307 40.7854 54.4618C40.695 54.308 40.6449 54.134 40.6395 53.9557C40.6277 53.7407 40.6192 53.4767 40.6158 53.1579C40.6125 52.8391 40.6074 52.4832 40.604 52.091V49.4975H40.6724L40.8275 49.7041C40.8849 49.7817 41.0055 49.931 41.1834 50.1461C41.3614 50.3611 41.579 50.6158 41.8379 50.9144C42.0968 51.213 42.3625 51.525 42.6493 51.8523C42.936 52.1795 43.2177 52.4975 43.4927 52.8019C43.7676 53.1064 44.0122 53.3729 44.2273 53.6023C44.4423 53.8317 44.6086 53.992 44.7207 54.0924C44.9165 54.2664 45.1235 54.4273 45.3406 54.5739C45.5337 54.7038 45.7419 54.8097 45.9605 54.8894C46.1939 54.9704 46.4368 55.0203 46.6832 55.0378C46.841 55.0555 47.002 55.064 47.1623 55.0673C47.3225 55.0707 47.5148 55.0732 47.7333 55.0732H49.0591C49.1556 55.0789 49.2523 55.0651 49.3434 55.0328C49.3671 55.0248 49.3876 55.0093 49.4017 54.9885C49.4157 54.9678 49.4225 54.943 49.421 54.918C49.4208 54.8967 49.4154 54.8757 49.4055 54.8567C49.3955 54.8378 49.3812 54.8215 49.3637 54.8092C49.3203 54.7779 49.2679 54.7616 49.2144 54.7629C49.0934 54.7649 48.9723 54.7572 48.8525 54.7401C48.6569 54.7083 48.4661 54.6517 48.2849 54.5714C48.0203 54.4615 47.7699 54.3199 47.5393 54.1497C47.3069 53.9815 47.0847 53.7995 46.8739 53.6049L46.2194 53.0027C46.1191 52.9074 45.9614 52.7497 45.7488 52.5371C45.5363 52.3246 45.2925 52.0724 45.0141 51.7857C44.7358 51.4989 44.4491 51.1953 44.1506 50.8849C43.852 50.5745 43.5653 50.2684 43.2929 49.9732C43.0204 49.678 42.7766 49.4165 42.57 49.1871C42.3634 48.9577 42.2141 48.7831 42.1222 48.6651C42.22 48.5529 42.3752 48.3927 42.5869 48.1801C42.7986 47.9676 43.0398 47.7297 43.3106 47.4666C43.5813 47.2034 43.852 46.9445 44.1218 46.6856C44.3917 46.4267 44.6355 46.1956 44.8506 45.9949C45.0656 45.7941 45.2234 45.644 45.3237 45.5495C45.5894 45.2917 45.8763 45.0567 46.1814 44.847C46.412 44.6888 46.6617 44.5605 46.9245 44.4649C47.023 44.4287 47.1235 44.3983 47.2256 44.3738C47.3277 44.3487 47.431 44.3287 47.5351 44.3139C47.6233 44.3008 47.7124 44.2941 47.8016 44.2937C47.8589 44.2961 47.9157 44.282 47.9652 44.2532C47.9846 44.2413 48.0004 44.2243 48.0109 44.2041C48.0215 44.1839 48.0264 44.1612 48.0252 44.1385C48.0257 44.1152 48.019 44.0924 48.0062 44.073C47.9934 44.0535 47.9751 44.0384 47.9535 44.0297C47.8939 44.0078 47.8305 43.998 47.767 44.001C47.6068 44.001 47.4204 44.001 47.2045 44.0095L46.5559 44.0272C46.3408 44.0331 46.1544 44.0356 45.9933 44.0356C45.8871 44.0356 45.764 44.0356 45.6207 44.0297C45.4773 44.0238 45.3313 44.0238 45.1787 44.0187C45.026 44.0137 44.8835 44.0095 44.7511 44.007C44.6187 44.0044 44.5099 44.0019 44.4272 44.0019C44.3665 43.9982 44.3057 44.008 44.2492 44.0306C44.229 44.0403 44.2122 44.0558 44.2009 44.0752C44.1896 44.0946 44.1844 44.117 44.186 44.1394C44.1856 44.1587 44.1902 44.1778 44.1992 44.1949C44.2082 44.212 44.2213 44.2265 44.2375 44.2372C44.2866 44.2627 44.3387 44.282 44.3926 44.2945C44.4549 44.3078 44.5101 44.3435 44.5478 44.3949C44.5841 44.4519 44.6021 44.5188 44.5992 44.5864C44.5738 44.7577 44.4977 44.9175 44.3808 45.0452C44.2399 45.2198 44.062 45.4289 43.8419 45.6701C43.7474 45.773 43.5981 45.9316 43.3915 46.1433L42.6831 46.861C42.4193 47.1281 42.1526 47.3949 41.8827 47.6614C41.6162 47.9304 41.3766 48.1717 41.1598 48.3901C40.9431 48.6086 40.7837 48.7747 40.6749 48.8894H40.6066V48.2349L40.6007 48.2451Z" fill="white"/>
<path fill-rule="evenodd" clip-rule="evenodd" d="M50.411 50.8275C50.411 51.2779 50.411 51.6996 50.411 52.0926C50.411 52.4857 50.4026 52.8441 50.3933 53.157C50.384 53.4699 50.3672 53.7331 50.3444 53.9422C50.3315 54.1222 50.2891 54.2989 50.2188 54.4651C50.1893 54.5299 50.1446 54.5866 50.0887 54.6306C50.0328 54.6747 49.9673 54.7047 49.8975 54.7182C49.8201 54.7373 49.7414 54.7509 49.6621 54.7586C49.5778 54.7671 49.4757 54.7696 49.3635 54.7696C49.2955 54.7651 49.2279 54.7832 49.1712 54.8211C49.1555 54.8331 49.143 54.8488 49.1345 54.8666C49.126 54.8845 49.1218 54.9041 49.1223 54.9239C49.122 54.9482 49.1289 54.9721 49.1421 54.9925C49.1553 55.0129 49.1742 55.029 49.1965 55.0387C49.2651 55.0685 49.3395 55.0824 49.4142 55.0791C49.5719 55.0791 49.7389 55.0791 49.9202 55.0673C50.1015 55.0555 50.2812 55.0538 50.465 55.0437C50.6489 55.0336 50.815 55.0437 50.9711 55.0353C51.1271 55.0269 51.241 55.0268 51.3296 55.0268C51.5539 55.0268 51.8086 55.0268 52.0987 55.0378C52.3889 55.0488 52.7152 55.0522 53.0854 55.0606C53.4557 55.069 53.869 55.0892 54.3304 55.0985C54.7917 55.1078 55.3053 55.112 55.8738 55.112C56.0204 55.1159 56.1671 55.1114 56.3132 55.0985C56.4021 55.0943 56.487 55.0598 56.5536 55.0007C56.6192 54.9247 56.6636 54.8328 56.6826 54.7342C56.7119 54.6257 56.7348 54.5156 56.7509 54.4044C56.7737 54.2602 56.7973 54.1058 56.8167 53.9388C56.8361 53.7719 56.8538 53.6116 56.8681 53.4665C56.8824 53.3215 56.8884 53.2026 56.8884 53.1157C56.8912 53.0388 56.8836 52.9619 56.8656 52.8871C56.8624 52.8578 56.8492 52.8305 56.8284 52.8097C56.8075 52.7888 56.7802 52.7757 56.7509 52.7724C56.7292 52.7708 56.7074 52.775 56.6878 52.7847C56.6682 52.7943 56.6515 52.809 56.6395 52.8272C56.6097 52.8795 56.5893 52.9366 56.5789 52.9959C56.5476 53.2417 56.4719 53.4798 56.3554 53.6985C56.2567 53.8686 56.1059 54.0026 55.9252 54.0805C55.7778 54.1403 55.6237 54.1825 55.4664 54.2062C55.2973 54.232 55.127 54.2492 54.9561 54.2577C54.7874 54.2661 54.6323 54.2695 54.4974 54.2695C54.0917 54.2815 53.6858 54.2495 53.287 54.1742C53.0367 54.1343 52.8099 54.0033 52.6503 53.8064C52.5103 53.5786 52.4406 53.3146 52.4496 53.0474C52.4496 52.9361 52.4437 52.7859 52.4412 52.597C52.4386 52.4081 52.4412 52.2065 52.4412 51.9889C52.4412 51.7713 52.4412 51.5672 52.4412 51.3665C52.4412 51.1657 52.4412 51.008 52.4412 50.879V49.7083C52.4401 49.6713 52.4457 49.6345 52.4579 49.5995C52.4629 49.5854 52.4723 49.5731 52.4848 49.5648C52.4973 49.5564 52.5121 49.5523 52.5271 49.5532C52.6115 49.5532 52.7279 49.5532 52.894 49.5532C53.0602 49.5532 53.2415 49.5599 53.4482 49.565C53.6548 49.57 53.8555 49.5734 54.0562 49.5785C54.2569 49.5835 54.4349 49.5903 54.5867 49.5987C54.7385 49.6071 54.8448 49.6097 54.9022 49.619C55.0582 49.6277 55.2115 49.6636 55.3551 49.7252C55.4562 49.7685 55.5455 49.8353 55.6157 49.92C55.6755 49.9997 55.7194 50.0902 55.7448 50.1866C55.7618 50.2785 55.7722 50.3715 55.776 50.4649C55.7819 50.5568 55.7902 50.6428 55.7961 50.7179C55.7955 50.7334 55.7981 50.7488 55.8036 50.7633C55.8092 50.7778 55.8175 50.791 55.8283 50.8022C55.8425 50.8153 55.8592 50.8251 55.8776 50.831C55.8959 50.837 55.9153 50.839 55.9345 50.8368C55.9549 50.8371 55.975 50.8318 55.9927 50.8216C56.0103 50.8113 56.025 50.7965 56.0349 50.7786C56.0587 50.7382 56.0741 50.6935 56.0804 50.6471C56.086 50.6014 56.0888 50.5555 56.0888 50.5096C56.0888 50.4809 56.0888 50.4252 56.0947 50.3552C56.1006 50.2852 56.1031 50.1866 56.1124 50.0913C56.1217 49.996 56.1243 49.8897 56.1327 49.7893C56.1411 49.689 56.1504 49.6029 56.1588 49.5287C56.1875 49.2841 56.2103 49.0893 56.228 48.9434C56.2457 48.7975 56.2592 48.6853 56.2677 48.606C56.2741 48.5568 56.278 48.5072 56.2794 48.4576C56.2809 48.4184 56.2687 48.3799 56.2449 48.3488C56.2354 48.3351 56.2227 48.3238 56.2081 48.3158C56.1934 48.3077 56.1772 48.3031 56.1605 48.3024C56.1213 48.3072 56.0855 48.3268 56.0602 48.3572C56.0256 48.3943 55.9758 48.4416 55.9193 48.4922C55.8438 48.5706 55.7471 48.6254 55.641 48.6499C55.4948 48.6838 55.3462 48.7058 55.1965 48.7157C55.1248 48.7207 54.9991 48.7275 54.8203 48.7334C54.6415 48.7393 54.4416 48.7418 54.2147 48.7418C53.9879 48.7418 53.7559 48.7485 53.5291 48.7485C53.3022 48.7485 53.0956 48.7485 52.921 48.7485H52.5448C52.5277 48.7503 52.5105 48.7469 52.4954 48.7386C52.4803 48.7303 52.4682 48.7176 52.4605 48.7022C52.4457 48.6679 52.4387 48.6307 52.4402 48.5934V44.9794C52.4382 44.944 52.4473 44.9089 52.4664 44.879C52.4746 44.8664 52.4861 44.8563 52.4996 44.8496C52.5131 44.8429 52.5282 44.84 52.5432 44.8411C52.609 44.8411 52.7237 44.8411 52.8848 44.8411C53.0459 44.8411 53.2314 44.847 53.4381 44.852C53.6447 44.8571 53.8538 44.8605 54.0604 44.8664C54.2671 44.8723 54.4476 44.8773 54.6028 44.8858C54.758 44.8942 54.8634 44.8976 54.9182 44.906C55.1117 44.9175 55.3026 44.9552 55.4858 45.0182C55.5957 45.0537 55.6944 45.1171 55.7726 45.2021C55.8316 45.274 55.8799 45.3541 55.916 45.4399C55.946 45.5009 55.9682 45.5655 55.9818 45.6322C55.9951 45.6968 56.0046 45.7621 56.0104 45.8279C56.0163 45.8877 56.0188 45.9366 56.0188 45.9737C56.0159 46.0215 56.0236 46.0694 56.0416 46.1138C56.0512 46.1307 56.0656 46.1445 56.0831 46.1532C56.1005 46.1619 56.1202 46.1652 56.1395 46.1627C56.1579 46.1624 56.176 46.1579 56.1924 46.1494C56.2088 46.1409 56.223 46.1287 56.2339 46.1138C56.2572 46.0838 56.2747 46.0498 56.2854 46.0134C56.2972 45.9763 56.3056 45.9451 56.3115 45.9223C56.32 45.8759 56.3292 45.8101 56.3377 45.7207C56.3461 45.6313 56.3545 45.5352 56.3604 45.4348C56.3663 45.3345 56.3747 45.2366 56.3806 45.1506C56.3865 45.0646 56.395 44.9979 56.3975 44.9583C56.4093 44.7373 56.4262 44.5619 56.4439 44.4371C56.4616 44.3122 56.4811 44.2153 56.4954 44.1554C56.5076 44.1084 56.5152 44.0604 56.5181 44.012C56.5196 43.979 56.5126 43.9462 56.4979 43.9167C56.4896 43.9021 56.4772 43.8902 56.4621 43.8827C56.4471 43.8752 56.4302 43.8724 56.4135 43.8745C56.3741 43.8781 56.3354 43.8877 56.2989 43.9032C56.2577 43.9194 56.2154 43.9326 56.1723 43.9428C56.1091 43.9513 56.0231 43.9656 55.9117 43.9858C55.8004 44.0061 55.6764 44.0171 55.5356 44.0289C55.4841 44.0289 55.3576 44.0348 55.1628 44.0348C54.9679 44.0348 54.7267 44.0348 54.4425 44.0348C54.1583 44.0348 53.8572 44.0348 53.5417 44.0348C53.2263 44.0348 52.9193 44.0348 52.6241 44.0348C52.3289 44.0348 52.0759 44.0348 51.8583 44.0348H51.4054C51.2587 44.0348 51.068 44.0348 50.8234 44.0263L50.0433 44.0086C49.7625 44.0036 49.49 44.0002 49.2201 44.0002C49.1348 43.9965 49.0495 44.0062 48.9672 44.0289C48.9064 44.0516 48.8777 44.0862 48.8777 44.1377C48.8775 44.1616 48.8841 44.1852 48.8968 44.2055C48.9095 44.2258 48.9278 44.2421 48.9495 44.2524C49.0072 44.2813 49.0713 44.2953 49.1358 44.2929C49.2505 44.2929 49.3652 44.2929 49.4732 44.3038C49.5611 44.3097 49.6482 44.3232 49.7338 44.3443C49.8667 44.3754 49.9938 44.4278 50.11 44.4995C50.1997 44.5578 50.2697 44.6419 50.3107 44.7407C50.3596 44.867 50.3858 45.0009 50.3882 45.1363C50.3882 45.2257 50.3942 45.3227 50.3967 45.423C50.3992 45.5234 50.3967 45.6474 50.4027 45.7874C50.4086 45.9274 50.4027 46.1062 50.4027 46.3179V50.8157L50.411 50.8275Z" fill="white"/>
<path fill-rule="evenodd" clip-rule="evenodd" d="M60.7565 47.1098H60.8079C60.8855 47.1781 61.0323 47.3274 61.2524 47.5602L62.0696 48.4205C62.3969 48.7578 62.7519 49.1289 63.1424 49.5279C63.5329 49.9268 63.937 50.3232 64.3528 50.7247C64.7514 51.1115 65.1607 51.5051 65.5807 51.9054C65.9965 52.3069 66.4073 52.6974 66.8029 53.0761C67.1984 53.4547 67.572 53.8073 67.9103 54.1252C68.2485 54.4432 68.5386 54.7156 68.7764 54.9408C68.8572 55.0236 68.9488 55.0951 69.0488 55.1534C69.1536 55.2163 69.2733 55.2498 69.3955 55.2504C69.4307 55.2489 69.465 55.238 69.4946 55.2189C69.5243 55.1997 69.5482 55.1731 69.5641 55.1416C69.6189 55.0315 69.6447 54.9093 69.6392 54.7865L69.8079 45.5605C69.8071 45.3412 69.8271 45.1223 69.8677 44.9069C69.8895 44.7705 69.9478 44.6425 70.0365 44.5366C70.1242 44.4471 70.2357 44.3845 70.3578 44.3561C70.4381 44.3325 70.5206 44.317 70.6041 44.3097C70.6767 44.3034 70.7497 44.3015 70.8225 44.3038C70.8904 44.306 70.9577 44.29 71.0173 44.2574C71.0364 44.2464 71.0523 44.2306 71.0634 44.2115C71.0745 44.1924 71.0804 44.1707 71.0805 44.1486C71.0811 44.1214 71.0719 44.0948 71.0546 44.0737C71.0372 44.0527 71.013 44.0386 70.9861 44.0339C70.9034 44.0136 70.8181 44.0059 70.7331 44.0112C70.3603 44.0112 70.0424 44.0162 69.7809 44.0289C69.5195 44.0415 69.3448 44.0457 69.2529 44.0457C69.1407 44.0457 68.9864 44.0457 68.7857 44.0373L68.1059 44.0196C67.8528 44.0145 67.5923 44.0112 67.3258 44.0112C67.2344 44.0067 67.1428 44.0143 67.0534 44.0339C67.025 44.0375 66.9987 44.0509 66.9792 44.0719C66.9598 44.0929 66.9484 44.1201 66.947 44.1486C66.9462 44.1693 66.9503 44.1899 66.9587 44.2088C66.9672 44.2276 66.98 44.2443 66.996 44.2574C67.054 44.2918 67.1209 44.3079 67.1882 44.3038C67.2599 44.3038 67.3435 44.3038 67.4354 44.3038C67.5314 44.3056 67.6271 44.3132 67.7222 44.3266C67.8103 44.3359 67.897 44.356 67.9803 44.3865C68.093 44.425 68.1938 44.4922 68.2729 44.5813C68.3563 44.6983 68.4122 44.8327 68.4365 44.9743C68.4762 45.2064 68.4963 45.4414 68.4964 45.6769L68.6515 52.1837H68.5833C68.5343 52.1373 68.4255 52.0311 68.256 51.8599C68.0864 51.6887 67.8799 51.4778 67.6336 51.2282L66.845 50.4303C66.5667 50.1495 66.2943 49.8737 66.0269 49.6071C65.7595 49.3406 65.5208 49.1011 65.3125 48.8962C64.868 48.4635 64.432 48.0334 63.9993 47.6024C63.5667 47.1714 63.1559 46.7674 62.7739 46.3811C62.3918 45.9949 62.0427 45.644 61.7382 45.337C61.4338 45.03 61.1849 44.777 60.9951 44.5779C60.8053 44.3789 60.6882 44.2684 60.6486 44.2279C60.5195 44.0955 60.4022 43.9816 60.2959 43.8906C60.2151 43.8094 60.1088 43.7584 59.9949 43.7463C59.9535 43.7496 59.914 43.7647 59.8809 43.7898C59.8479 43.815 59.8227 43.849 59.8085 43.888C59.7567 43.9999 59.7322 44.1224 59.7368 44.2456L59.5994 52.92C59.5994 53.3417 59.5816 53.6791 59.5588 53.9245C59.5511 54.1138 59.5065 54.2998 59.4273 54.4719C59.397 54.5275 59.3553 54.576 59.3048 54.6142C59.2543 54.6525 59.1963 54.6796 59.1346 54.6937C59.0213 54.7197 58.9063 54.738 58.7905 54.7485C58.6674 54.757 58.5526 54.762 58.4464 54.762C58.3869 54.7615 58.3285 54.7775 58.2777 54.8084C58.2583 54.8197 58.2419 54.8354 58.2299 54.8544C58.2178 54.8733 58.2105 54.8949 58.2085 54.9172C58.2078 54.9461 58.2167 54.9745 58.2338 54.9979C58.2509 55.0212 58.2752 55.0382 58.3031 55.0462C58.3854 55.0688 58.4708 55.0777 58.556 55.0724C58.8166 55.0724 59.0621 55.0665 59.2932 55.0572C59.5243 55.0479 59.7148 55.0437 59.8785 55.0344C60.0421 55.0252 60.1424 55.0209 60.1905 55.0209C60.3314 55.0209 60.5693 55.0319 60.9083 55.0471C61.2474 55.0623 61.6597 55.0699 62.1531 55.0732C62.2386 55.0774 62.3243 55.0668 62.4062 55.042C62.4337 55.0351 62.4579 55.0191 62.4751 54.9966C62.4922 54.9741 62.5013 54.9464 62.5006 54.918C62.5005 54.896 62.4946 54.8743 62.4835 54.8552C62.4724 54.8361 62.4565 54.8203 62.4374 54.8092C62.3782 54.7755 62.3105 54.7594 62.2425 54.7629C62.1121 54.7631 61.9818 54.7564 61.8521 54.7426C61.7156 54.7293 61.5809 54.701 61.4506 54.6583C61.3455 54.6214 61.2563 54.5497 61.1976 54.455C61.1072 54.3057 61.0467 54.1401 61.0196 53.9675C60.9684 53.6727 60.9402 53.3744 60.9353 53.0752L60.7665 47.1031L60.7565 47.1098Z" fill="white"/>
<path d="M74.9348 47.3839C74.9348 44.7972 74.9348 44.3215 74.901 43.7767C74.8673 43.1981 74.7324 42.9257 74.1698 42.8068C73.9507 42.7689 73.7285 42.752 73.5061 42.7562C73.3189 42.7562 73.2168 42.7216 73.2168 42.6027C73.2168 42.4837 73.3357 42.4492 73.5912 42.4492C74.4928 42.4492 75.5648 42.4998 76.0414 42.4998C76.5685 42.4998 77.6438 42.4492 78.6618 42.4492C80.7888 42.4492 83.6303 42.4492 85.485 44.389C86.5832 45.5557 87.1763 47.1088 87.1354 48.7106C87.1601 50.4743 86.4942 52.1778 85.28 53.4573C84.4973 54.2568 82.7278 55.4654 79.5802 55.4654C78.9679 55.4654 78.2704 55.414 77.6236 55.3634C76.9767 55.3128 76.3812 55.2613 75.9561 55.2613C75.7689 55.2613 75.3945 55.2613 74.9863 55.2782C74.5949 55.2782 74.1529 55.3128 73.8122 55.3128C73.5912 55.3128 73.4749 55.2613 73.4749 55.1441C73.4749 55.0598 73.5432 55.0083 73.7473 55.0083C73.9533 55.0084 74.1587 54.9855 74.3596 54.94C74.697 54.8725 74.7813 54.498 74.8529 54.0046C74.9373 53.2903 74.9373 51.9459 74.9373 50.378L74.9348 47.3839ZM77.0618 49.2554C77.0618 51.0586 77.0787 52.3684 77.0956 52.6915C77.0811 53.1301 77.1444 53.5679 77.2828 53.9844C77.5037 54.3083 78.1676 54.6659 79.5119 54.6659C80.926 54.7805 82.3293 54.3411 83.4254 53.4404C84.5142 52.5051 84.854 50.9566 84.854 49.204C84.8841 48.4212 84.7548 47.6405 84.4739 46.9092C84.1931 46.1779 83.7666 45.5113 83.2204 44.9499C81.8963 43.7692 80.1602 43.158 78.3885 43.2487C78.0165 43.2432 77.6451 43.2831 77.2828 43.3676C77.2148 43.3912 77.1572 43.4379 77.1199 43.4995C77.0826 43.5611 77.0681 43.6338 77.0787 43.705C77.0619 44.2827 77.0618 45.7638 77.0618 47.1081V49.2554Z" fill="white"/>
<path d="M89.3309 48.5579C89.3309 46.3651 89.3309 45.9552 89.314 45.4956C89.2794 45.0022 89.1454 44.8487 88.6672 44.7129C88.4711 44.6744 88.2714 44.6575 88.0717 44.6623C87.919 44.6623 87.8186 44.6108 87.8186 44.5088C87.8186 44.4067 87.9375 44.373 88.156 44.373C88.9387 44.373 89.8909 44.4067 90.316 44.4067C90.7925 44.4067 94.1113 44.4244 94.3998 44.4067C94.6108 44.3896 94.8208 44.3614 95.0289 44.3224C95.1066 44.2943 95.186 44.2714 95.2667 44.2541C95.3511 44.2541 95.3696 44.3224 95.3696 44.3907C95.307 44.6991 95.2673 45.0117 95.2507 45.326C95.2338 45.4795 95.1993 46.1087 95.1664 46.2791C95.1487 46.3474 95.115 46.5178 94.9977 46.5178C94.8957 46.5178 94.8788 46.4494 94.8788 46.3305C94.8803 46.1495 94.8455 45.97 94.7767 45.8025C94.6578 45.5495 94.5389 45.3429 93.79 45.2746C93.5369 45.2409 91.748 45.2063 91.4419 45.2063C91.3736 45.2063 91.339 45.2577 91.339 45.3421V48.9147C91.339 48.999 91.3559 49.0682 91.4419 49.0682C91.7792 49.0682 93.7191 49.0682 94.0616 49.0336C94.4192 48.9999 94.6401 48.9653 94.7759 48.8126C94.8948 48.7106 94.9445 48.6254 95.0137 48.6254C95.0498 48.6301 95.0826 48.6488 95.1049 48.6776C95.1272 48.7064 95.1371 48.7428 95.1326 48.7789C95.1326 48.8633 95.0989 49.1019 95.0137 49.834C94.9791 50.1233 94.9454 50.7019 94.9454 50.8039C94.9454 50.9229 94.9285 51.127 94.7919 51.127C94.6907 51.127 94.6561 51.0763 94.6561 51.008C94.6393 50.8545 94.6392 50.6707 94.6046 50.4809C94.5203 50.1916 94.3331 49.9707 93.7714 49.9192C93.499 49.8855 91.7978 49.8509 91.4233 49.8509C91.355 49.8509 91.339 49.9192 91.339 50.0044V51.1615C91.339 51.6549 91.3222 52.8795 91.339 53.3055C91.3736 54.2922 91.8324 54.5132 93.3632 54.5132C93.8415 54.5348 94.3197 54.4714 94.7759 54.326C95.1495 54.1573 95.3198 53.8495 95.4219 53.254C95.4556 53.1005 95.4903 53.0322 95.5906 53.0322C95.7096 53.0322 95.7264 53.2194 95.7264 53.3696C95.7027 53.9084 95.6344 54.4444 95.5223 54.972C95.4202 55.3465 95.2844 55.3465 94.7227 55.3465C93.5993 55.3465 92.6986 55.3288 91.9665 55.295C91.2345 55.2782 90.6728 55.2613 90.2308 55.2613C90.0621 55.2613 89.7382 55.2782 89.3806 55.2782C89.023 55.2951 88.6486 55.3128 88.3424 55.3128C88.1552 55.3128 88.0531 55.2613 88.0531 55.1593C88.0531 55.091 88.1046 55.0058 88.291 55.0058C88.4683 55.0101 88.6456 54.9931 88.8189 54.9552C89.1251 54.8869 89.2103 54.6178 89.2617 54.1893C89.3292 53.577 89.3292 52.4368 89.3292 51.1101L89.3309 48.5579Z" fill="white"/>
<path d="M99.5571 53.3392C99.5908 54.4618 99.778 54.8025 100.068 54.9046C100.322 54.9791 100.586 55.0135 100.85 55.0066C101.019 55.0066 101.103 55.0749 101.103 55.1601C101.103 55.279 100.967 55.3136 100.766 55.3136C99.7958 55.3136 99.0983 55.2622 98.8259 55.2622C98.6901 55.2622 97.9758 55.3136 97.2099 55.3136C97.005 55.3136 96.8726 55.2959 96.8726 55.1601C96.8726 55.0758 96.9746 55.0066 97.1104 55.0066C97.3391 55.0093 97.5674 54.9864 97.791 54.9383C98.1824 54.8371 98.233 54.4458 98.2507 53.1857L98.3865 44.6108C98.3865 44.3215 98.4893 44.1174 98.6395 44.1174C98.8267 44.1174 99.0308 44.3392 99.2863 44.5939C99.4736 44.7812 101.719 47.0786 103.897 49.2048C104.919 50.2085 106.909 52.2504 107.13 52.4545H107.198L107.045 46.0227C107.028 45.1379 106.891 44.8832 106.535 44.7466C106.28 44.6776 106.016 44.6491 105.752 44.6623C105.565 44.6623 105.514 44.594 105.514 44.5088C105.514 44.3899 105.668 44.373 105.888 44.373C106.67 44.373 107.471 44.4067 107.795 44.4067C107.963 44.4067 108.526 44.373 109.258 44.373C109.462 44.373 109.595 44.3899 109.595 44.5088C109.595 44.5931 109.511 44.6623 109.342 44.6623C109.187 44.6557 109.032 44.6728 108.883 44.7129C108.474 44.8318 108.355 45.0873 108.339 45.9038L108.17 55.0235C108.17 55.3473 108.051 55.4823 107.932 55.4823C107.815 55.4743 107.7 55.4431 107.595 55.3905C107.49 55.338 107.397 55.2651 107.32 55.1761C106.384 54.3091 104.512 52.5219 102.947 51.008C101.314 49.4427 99.7317 47.6901 99.4424 47.4354H99.3909L99.5571 53.3392Z" fill="white"/>
<path d="M114.752 45.2577L112.523 45.3083C111.656 45.3252 111.298 45.4272 111.077 45.7503C110.966 45.9 110.881 46.067 110.824 46.2445C110.789 46.3634 110.756 46.4317 110.655 46.4317C110.555 46.4317 110.52 46.3474 110.52 46.193C110.52 45.9552 110.809 44.5594 110.843 44.4405C110.877 44.2532 110.927 44.168 111.011 44.168C111.13 44.168 111.284 44.287 111.658 44.3367C112.156 44.3858 112.656 44.4083 113.156 44.4042H119.229C119.57 44.4078 119.912 44.3853 120.25 44.3367C120.488 44.3021 120.607 44.2684 120.658 44.2684C120.76 44.2684 120.777 44.3527 120.777 44.5754C120.777 44.8816 120.743 45.9535 120.743 46.328C120.726 46.4815 120.692 46.5658 120.608 46.5658C120.489 46.5658 120.454 46.4975 120.439 46.2765L120.421 46.1239C120.387 45.7494 119.999 45.3066 118.65 45.2906L116.762 45.256V51.1093C116.762 52.4359 116.778 53.5762 116.846 54.2054C116.896 54.6136 116.982 54.886 117.424 54.9543C117.678 54.9885 117.934 55.0054 118.19 55.0049C118.359 55.0049 118.429 55.0893 118.429 55.1584C118.429 55.2605 118.31 55.3119 118.14 55.3119C117.153 55.3119 116.149 55.2605 115.724 55.2605C115.387 55.2605 114.362 55.3119 113.767 55.3119C113.579 55.3119 113.477 55.2605 113.477 55.1584C113.477 55.0901 113.528 55.0049 113.715 55.0049C113.892 55.0101 114.069 54.9931 114.242 54.9543C114.549 54.886 114.634 54.617 114.685 54.1885C114.753 53.5762 114.753 52.4359 114.753 51.1093L114.752 45.2577Z" fill="white"/>
<path d="M123.703 48.5588C123.703 46.3659 123.703 45.956 123.686 45.4964C123.651 45.003 123.499 44.8326 123.176 44.7306C122.999 44.6816 122.815 44.6586 122.632 44.6623C122.479 44.6623 122.394 44.6277 122.394 44.4936C122.394 44.4092 122.513 44.3747 122.751 44.3747C123.313 44.3747 124.334 44.4084 124.759 44.4084C125.133 44.4084 126.103 44.3747 126.682 44.3747C126.869 44.3747 126.988 44.4084 126.988 44.4936C126.988 44.6294 126.904 44.6623 126.75 44.6623C126.601 44.6632 126.453 44.6802 126.307 44.7129C125.899 44.7812 125.78 44.9853 125.745 45.4956C125.711 45.9552 125.711 46.3634 125.711 48.5579V51.1101C125.711 52.5051 125.711 53.6622 125.779 54.2745C125.83 54.6659 125.933 54.8869 126.375 54.9552C126.629 54.9894 126.884 55.0063 127.141 55.0058C127.309 55.0058 127.379 55.0901 127.379 55.1593C127.379 55.2613 127.26 55.3128 127.09 55.3128C126.103 55.3128 125.083 55.2613 124.674 55.2613C124.336 55.2613 123.313 55.3128 122.718 55.3128C122.53 55.3128 122.428 55.2613 122.428 55.1593C122.428 55.0909 122.48 55.0058 122.666 55.0058C122.843 55.01 123.02 54.993 123.193 54.9552C123.499 54.8869 123.585 54.6828 123.635 54.2568C123.704 53.6614 123.704 52.5042 123.704 51.1092L123.703 48.5588Z" fill="white"/>
<path d="M128.961 55.1255C128.724 55.0235 128.672 54.9569 128.672 54.6322C128.672 53.8495 128.74 52.9453 128.756 52.7092C128.756 52.4882 128.825 52.3347 128.944 52.3347C129.08 52.3347 129.097 52.4705 129.097 52.5725C129.107 52.8274 129.153 53.0795 129.233 53.3215C129.422 53.7852 129.756 54.1751 130.186 54.4327C130.615 54.6903 131.117 54.8017 131.615 54.7502C131.874 54.7779 132.137 54.7512 132.385 54.6719C132.634 54.5925 132.863 54.4622 133.058 54.2893C133.254 54.1164 133.411 53.9046 133.52 53.6675C133.629 53.4305 133.687 53.1733 133.691 52.9125C133.691 52.2833 133.538 51.6541 132.21 50.8714L131.343 50.3611C129.572 49.3229 128.995 48.353 128.995 47.0778C128.995 45.3066 130.696 44.168 132.773 44.168C133.489 44.1618 134.202 44.2419 134.899 44.4067C135.036 44.4405 135.103 44.4911 135.103 44.594C135.103 44.7812 135.053 45.1894 135.053 46.3297C135.053 46.6358 134.984 46.7885 134.865 46.7885C134.764 46.7885 134.713 46.7042 134.713 46.5355C134.689 46.1839 134.551 45.8495 134.321 45.5824C134.115 45.3472 133.857 45.1631 133.568 45.045C133.279 44.9268 132.966 44.8778 132.654 44.9018C131.582 44.9018 130.612 45.4635 130.612 46.4503C130.612 47.0963 130.85 47.6074 132.194 48.3555L132.806 48.6929C134.78 49.7817 135.393 50.8857 135.393 52.1972C135.403 52.74 135.27 53.2758 135.007 53.7507C134.744 54.2256 134.36 54.623 133.895 54.9029C133.14 55.3477 132.269 55.5552 131.395 55.4983C130.567 55.5333 129.741 55.4067 128.961 55.1255Z" fill="white"/>
<path d="M140.787 45.2577L138.559 45.3083C137.691 45.3252 137.333 45.4272 137.112 45.7503C137.001 45.9001 136.916 46.067 136.859 46.2445C136.825 46.3634 136.791 46.4317 136.69 46.4317C136.59 46.4317 136.555 46.3474 136.555 46.193C136.555 45.9552 136.844 44.5594 136.878 44.4405C136.912 44.2532 136.962 44.168 137.046 44.168C137.165 44.168 137.319 44.287 137.693 44.3367C138.191 44.3857 138.69 44.4083 139.19 44.4042H145.263C145.604 44.4078 145.946 44.3852 146.284 44.3367C146.522 44.3021 146.642 44.2684 146.692 44.2684C146.794 44.2684 146.811 44.3527 146.811 44.5754C146.811 44.8816 146.778 45.9535 146.778 46.328C146.761 46.4815 146.726 46.5658 146.642 46.5658C146.523 46.5658 146.488 46.4975 146.473 46.2765L146.455 46.1239C146.422 45.7494 146.034 45.3066 144.684 45.2906L142.796 45.256V51.1093C142.796 52.4359 142.813 53.5762 142.88 54.2054C142.931 54.6136 143.016 54.886 143.459 54.9543C143.713 54.9885 143.968 55.0054 144.225 55.0049C144.393 55.0049 144.462 55.0893 144.462 55.1584C144.462 55.2605 144.343 55.3119 144.173 55.3119C143.186 55.3119 142.182 55.2605 141.757 55.2605C141.419 55.2605 140.395 55.3119 139.799 55.3119C139.612 55.3119 139.51 55.2605 139.51 55.1584C139.51 55.0901 139.561 55.0049 139.748 55.0049C139.925 55.0101 140.102 54.9931 140.275 54.9543C140.582 54.886 140.666 54.617 140.718 54.1885C140.786 53.5762 140.786 52.4359 140.786 51.1093L140.787 45.2577Z" fill="white"/>
<path d="M149.398 48.5588C149.398 46.3659 149.398 45.956 149.381 45.4964C149.347 45.003 149.212 44.8495 148.734 44.7137C148.538 44.6752 148.339 44.6583 148.139 44.6631C147.985 44.6631 147.886 44.6117 147.886 44.5096C147.886 44.4076 148.005 44.3738 148.223 44.3738C149.006 44.3738 149.959 44.4076 150.266 44.4076C150.776 44.4076 152.137 44.3738 152.597 44.3738C153.583 44.3062 154.568 44.5184 155.438 44.9861C155.756 45.2139 156.017 45.5121 156.2 45.8574C156.383 46.2028 156.483 46.5858 156.494 46.9766C156.494 48.0485 155.881 49.0007 154.418 50.1756C155.745 51.8084 156.8 53.1191 157.701 54.0207C158.111 54.5117 158.677 54.8479 159.304 54.9737C159.421 55.0006 159.541 55.0123 159.661 55.0083C159.706 55.0045 159.751 55.0184 159.786 55.0471C159.821 55.0757 159.844 55.1169 159.849 55.1618C159.849 55.2807 159.746 55.3153 159.559 55.3153H158.125C157.565 55.362 157.003 55.2623 156.493 55.026C155.665 54.4751 154.967 53.749 154.451 52.8989C153.855 52.1163 153.225 51.1464 153.039 50.9254C153.004 50.8896 152.961 50.8619 152.914 50.8443C152.867 50.8267 152.817 50.8195 152.767 50.8233L151.422 50.7896C151.406 50.7877 151.39 50.7895 151.374 50.7948C151.359 50.8001 151.345 50.8088 151.334 50.8202C151.322 50.8317 151.314 50.8456 151.308 50.8609C151.303 50.8761 151.301 50.8924 151.303 50.9085V51.1126C151.303 52.4562 151.32 53.5796 151.388 54.1919C151.439 54.6136 151.506 54.8894 151.966 54.9577C152.209 54.9902 152.453 55.0071 152.697 55.0083C152.742 55.0045 152.787 55.0184 152.822 55.0471C152.857 55.0757 152.879 55.1169 152.885 55.1618C152.885 55.2639 152.766 55.3153 152.579 55.3153C151.711 55.3153 150.47 55.2639 150.247 55.2639C149.958 55.2639 149.006 55.3153 148.41 55.3153C148.223 55.3153 148.121 55.2639 148.121 55.1618C148.121 55.0935 148.172 55.0083 148.359 55.0083C148.536 55.0125 148.713 54.9955 148.886 54.9577C149.193 54.8894 149.277 54.6203 149.328 54.1919C149.396 53.5796 149.396 52.4393 149.396 51.1126L149.398 48.5588ZM151.303 49.6814C151.303 49.8349 151.338 49.8863 151.439 49.9344C151.811 50.0327 152.194 50.0784 152.579 50.0702C152.948 50.124 153.324 50.0389 153.634 49.8315C153.962 49.5844 154.223 49.2584 154.393 48.8837C154.562 48.509 154.634 48.0976 154.603 47.6876C154.603 45.6465 153.208 45.1185 152.325 45.1185C152.03 45.1114 151.734 45.1286 151.441 45.17C151.339 45.2037 151.305 45.2543 151.305 45.3741L151.303 49.6814Z" fill="white"/>
<path d="M162.517 51.5529C162.546 51.0255 162.429 50.5004 162.18 50.0347C162.078 49.8138 160.036 46.6325 159.509 45.8658C159.262 45.46 158.931 45.1119 158.538 44.8453C158.345 44.7367 158.129 44.6727 157.908 44.6581C157.789 44.6581 157.688 44.6066 157.688 44.5045C157.688 44.4025 157.789 44.3688 157.977 44.3688C158.23 44.3688 159.355 44.4025 159.849 44.4025C160.172 44.4025 160.87 44.3688 161.55 44.3688C161.686 44.3688 161.772 44.4025 161.772 44.5045C161.772 44.6235 161.669 44.6235 161.434 44.6918C161.315 44.7255 161.23 44.793 161.23 44.9128C161.253 45.09 161.317 45.2593 161.417 45.407C161.69 45.8489 163.646 49.2352 163.901 49.6434C164.088 49.3061 165.909 46.2065 166.13 45.7638C166.257 45.5269 166.332 45.266 166.351 44.998C166.351 44.8622 166.283 44.7255 166.027 44.6741C165.892 44.6404 165.755 44.6235 165.755 44.5054C165.755 44.4033 165.839 44.3696 166.008 44.3696C166.501 44.3696 167.028 44.4033 167.471 44.4033C167.794 44.4033 168.781 44.3696 169.074 44.3696C169.242 44.3696 169.346 44.4034 169.346 44.4885C169.346 44.5906 169.227 44.6572 169.057 44.6572C168.833 44.6733 168.613 44.7305 168.41 44.8259C168.094 44.9805 167.824 45.2152 167.627 45.5065C166.572 46.9934 165.601 48.5384 164.718 50.1343C164.551 50.597 164.487 51.0907 164.531 51.5807V52.737C164.531 52.9757 164.531 53.5711 164.565 54.1835C164.599 54.6052 164.734 54.8809 165.178 54.9493C165.426 54.9824 165.676 54.9993 165.927 54.9999C166.096 54.9999 166.18 55.0842 166.18 55.1534C166.18 55.2554 166.061 55.3069 165.857 55.3069C164.921 55.3069 163.917 55.2554 163.509 55.2554C163.135 55.2554 162.131 55.3069 161.569 55.3069C161.365 55.3069 161.245 55.2723 161.245 55.1534C161.245 55.085 161.313 54.9999 161.483 54.9999C161.66 55.0031 161.837 54.9861 162.01 54.9493C162.316 54.8809 162.432 54.6119 162.469 54.1835C162.521 53.5711 162.521 52.9757 162.521 52.737L162.517 51.5529Z" fill="white"/>
<path fill-rule="evenodd" clip-rule="evenodd" d="M85.5313 0.499995C89.4714 0.499254 93.2899 1.86477 96.336 4.36386C99.3822 6.86295 101.468 10.341 102.237 14.2053C103.006 18.0696 102.411 22.0811 100.554 25.5562C98.6975 29.0312 95.6931 31.7549 92.053 33.2631C88.413 34.7712 84.3626 34.9705 80.592 33.827C76.8215 32.6835 73.5641 30.2679 71.3749 26.9919C69.1858 23.7159 68.2003 19.7822 68.5864 15.8611C68.9725 11.9399 70.7064 8.27395 73.4925 5.48788C75.0716 3.90437 76.9481 2.64853 79.0141 1.79254C81.0801 0.936548 83.2949 0.497286 85.5313 0.499995ZM96.9045 6.1508C94.2734 3.51996 90.8114 1.88281 87.1085 1.51829C83.4056 1.15378 79.6908 2.08445 76.5972 4.15175C73.5035 6.21904 71.2224 9.29504 70.1424 12.8557C69.0625 16.4163 69.2505 20.2412 70.6744 23.6787C72.0984 27.1163 74.6702 29.9537 77.9516 31.7077C81.2331 33.4616 85.0212 34.0235 88.6705 33.2976C92.3199 32.5717 95.6046 30.6029 97.9651 27.7267C100.326 24.8506 101.616 21.2449 101.616 17.5241C101.618 15.4114 101.204 13.3191 100.395 11.3673C99.5866 9.41551 98.4003 7.64271 96.9045 6.1508Z" fill="white"/>
<path fill-rule="evenodd" clip-rule="evenodd" d="M90.0409 3.58011C89.2335 3.5797 88.434 3.73971 87.6889 4.05085C86.9439 4.36199 86.2681 4.81807 85.7008 5.39258C84.5487 6.55682 83.9025 8.12858 83.9025 9.76647C83.9025 11.4044 84.5487 12.9761 85.7008 14.1404C86.2684 14.7145 86.9442 15.1704 87.6893 15.4815C88.4343 15.7926 89.2336 15.9528 90.0409 15.9528C90.8483 15.9528 91.6476 15.7926 92.3926 15.4815C93.1376 15.1704 93.8135 14.7145 94.3811 14.1404C95.5331 12.9761 96.1793 11.4044 96.1793 9.76647C96.1793 8.12858 95.5331 6.55682 94.3811 5.39258C93.8138 4.81799 93.138 4.36187 92.3929 4.05072C91.6479 3.73957 90.8484 3.57961 90.0409 3.58011ZM85.0168 4.70268C85.6738 4.0381 86.4562 3.51047 87.3186 3.15037C88.181 2.79028 89.1064 2.60486 90.0409 2.60486C90.9755 2.60486 91.9007 2.79028 92.7632 3.15037C93.6256 3.51047 94.4079 4.0381 95.065 4.70268C96.3989 6.05032 97.1473 7.86988 97.1473 9.76605C97.1473 11.6622 96.3989 13.4818 95.065 14.8294C94.4079 15.4939 93.6255 16.0214 92.7631 16.3815C91.9007 16.7415 90.9755 16.9269 90.0409 16.9269C89.1064 16.9269 88.1811 16.7415 87.3187 16.3815C86.4563 16.0214 85.6739 15.4939 85.0168 14.8294C83.683 13.4815 82.9348 11.6619 82.9348 9.76562C82.9348 7.86938 83.683 6.04972 85.0168 4.70183V4.70268Z" fill="white"/>
<path fill-rule="evenodd" clip-rule="evenodd" d="M78.5772 13.049C77.6045 13.048 76.6412 13.2405 75.7435 13.6152C74.8458 13.99 74.0316 14.5394 73.3482 15.2317C71.9612 16.6337 71.1833 18.5262 71.1833 20.4983C71.1833 22.4705 71.9612 24.363 73.3482 25.765C74.0317 26.4561 74.8455 27.0049 75.7425 27.3793C76.6395 27.7538 77.6019 27.9466 78.574 27.9466C79.546 27.9466 80.5083 27.7538 81.4053 27.3793C82.3023 27.0049 83.1161 26.4561 83.7996 25.765C85.1868 24.3631 85.9648 22.4705 85.9648 20.4983C85.9648 18.5262 85.1868 16.6336 83.7996 15.2317C83.1162 14.5394 82.302 13.99 81.4043 13.6152C80.5066 13.2405 79.5433 13.048 78.5706 13.049H78.5772ZM72.5275 14.3984C73.3189 13.5983 74.2611 12.963 75.2996 12.5295C76.3381 12.0959 77.4523 11.8727 78.5777 11.8727C79.703 11.8727 80.8173 12.0959 81.8558 12.5295C82.8943 12.963 83.8365 13.5983 84.6279 14.3984C86.2333 16.0216 87.1337 18.2124 87.1337 20.4954C87.1337 22.7784 86.2333 24.9692 84.6279 26.5924C83.8365 27.3925 82.8943 28.0278 81.8558 28.4613C80.8173 28.8949 79.703 29.1181 78.5777 29.1181C77.4523 29.1181 76.3381 28.8949 75.2996 28.4613C74.2611 28.0278 73.3189 27.3925 72.5275 26.5924C70.9221 24.9692 70.0217 22.7784 70.0217 20.4954C70.0217 18.2124 70.9221 16.0216 72.5275 14.3984Z" fill="white"/>
<path fill-rule="evenodd" clip-rule="evenodd" d="M93.4432 17.3579C92.7011 17.3576 91.9663 17.5047 91.2815 17.7907C90.5967 18.0766 89.9755 18.4957 89.454 19.0237C88.3951 20.0939 87.8012 21.5386 87.8012 23.0442C87.8012 24.5497 88.3951 25.9944 89.454 27.0647C89.9757 27.5924 90.5969 28.0114 91.2817 28.2974C91.9665 28.5833 92.7011 28.7306 93.4432 28.7306C94.1853 28.7306 94.9201 28.5833 95.6049 28.2974C96.2896 28.0114 96.9108 27.5924 97.4325 27.0647C98.4913 25.9944 99.0853 24.5497 99.0853 23.0442C99.0853 21.5386 98.4913 20.0939 97.4325 19.0237C96.911 18.4957 96.2898 18.0765 95.605 17.7906C94.9201 17.5047 94.1854 17.3576 93.4432 17.3579ZM88.8256 18.3894C89.4296 17.7786 90.1487 17.2936 90.9414 16.9626C91.7341 16.6316 92.5846 16.4612 93.4436 16.4612C94.3027 16.4612 95.1533 16.6316 95.946 16.9626C96.7387 17.2936 97.4578 17.7786 98.0618 18.3894C99.2875 19.6286 99.975 21.3012 99.975 23.0442C99.975 24.7871 99.2875 26.4597 98.0618 27.6989C97.4578 28.3098 96.7387 28.7947 95.946 29.1257C95.1533 29.4567 94.3027 29.6271 93.4436 29.6271C92.5846 29.6271 91.7341 29.4567 90.9414 29.1257C90.1487 28.7947 89.4296 28.3098 88.8256 27.6989C87.5997 26.4599 86.9121 24.7872 86.9121 23.0442C86.9121 21.3011 87.5997 19.6285 88.8256 18.3894Z" fill="white"/>
</g>
<defs>
<clipPath id="clip0_1702_1952">
<rect width="168.681" height="55" fill="white" transform="translate(0.659668 0.5)"/>
</clipPath>
</defs>
</svg>
