<svg width="180" height="50" viewBox="0 0 180 50" fill="none" xmlns="http://www.w3.org/2000/svg">
<path d="M16.1876 0.046875C14.5626 0.203125 12.836 0.546875 11.3751 1.02344C10.2344 1.39062 10.0079 1.39844 9.56256 1.09375C8.94537 0.679688 8.41412 0.515625 7.63287 0.515625C6.55475 0.507812 6.28131 0.671875 4.78131 2.17969C2.50787 4.46094 0.828184 6.21094 0.687559 6.42188C0.312559 7 0.390684 7.71875 0.882872 8.15625C1.50787 8.72656 2.25006 8.70312 3.13287 8.07031L3.32037 7.92969L3.2735 8.24219C3.0235 9.89844 3.01568 12.8125 3.25787 14.6016C3.42975 15.8516 3.73443 17.2422 4.05475 18.2422C5.35162 22.2812 7.98443 25.6406 11.0391 27.1328C12.7735 27.9766 13.711 28.2031 15.7969 28.2578C17.1172 28.2969 17.4454 28.2734 18.2891 28.1328C22.5235 27.4141 25.9766 24.5547 28.6719 19.5391C29.8985 17.2734 31.7501 16.0312 33.2032 16.5156C34.1797 16.8438 34.7813 18.0859 34.6797 19.5703C34.5235 21.9375 32.3985 24.4062 28.4766 26.7734C24.961 28.8906 21.2813 29.9844 16.9297 30.1953C12.9063 30.3984 9.42193 29.0312 6.60162 26.1641C6.211 25.7578 5.72662 25.2344 5.53912 25C5.01568 24.3438 4.14068 23.0078 3.71881 22.2266C3.13287 21.125 3.22662 21.1484 2.7735 21.9766C0.578184 25.9609 -0.156191 30.9688 0.648497 36.5234C1.20318 40.3516 2.54693 44.7578 4.086 47.8203C4.67193 49 5.64068 49.7266 6.87506 49.9375C8.73443 50.25 10.586 48.9922 11.0313 47.1172C11.0938 46.8594 11.1172 46.4375 11.0938 46.0156C11.0547 45.375 11.0157 45.25 10.3907 43.7813C9.836 42.4922 9.54693 41.7656 9.54693 41.6797C9.54693 41.6719 9.94537 41.7969 10.4297 41.9531C11.5547 42.3281 13.1485 42.6953 14.3907 42.8594C15.5626 43.0156 17.9844 43.0391 19.1172 42.8984C20.6719 42.7109 22.9532 42.1953 23.7969 41.8438C23.9532 41.7812 24.0782 41.75 24.0782 41.7812C24.0782 41.8203 23.8282 42.4141 23.5313 43.1094C23.2266 43.8125 22.8907 44.6563 22.7735 44.9844C22.2344 46.5547 22.7032 48.1875 23.9766 49.1563C24.7344 49.7266 25.2032 49.875 26.2266 49.875C27.2501 49.875 27.7188 49.7266 28.4766 49.1563C29.1094 48.6641 29.4844 48.0938 30.1016 46.6406C31.8047 42.6563 32.8516 38.6172 33.2188 34.6484C33.3204 33.5391 33.3204 30.9453 33.2188 29.9141C33.1094 28.8203 32.8751 27.4531 32.6329 26.5312C32.5235 26.1172 32.4376 25.7656 32.4376 25.75C32.4376 25.7344 32.8047 25.3516 33.2501 24.9062C34.6563 23.5078 35.5782 22.0859 35.9297 20.7812C36.0313 20.4141 36.0704 19.9766 36.0704 19.1797C36.0704 17.9219 35.9376 17.3828 35.4141 16.5859C34.961 15.8984 34.5391 15.5156 32.8751 14.2656C32.0313 13.6328 31.3047 13.0469 31.2579 12.9609C31.211 12.8672 31.1407 12.5859 31.1094 12.3203C31.0235 11.7422 30.8907 11.5703 30.6016 11.7031C30.3282 11.8281 29.9532 11.8203 29.5313 11.6797C28.9141 11.4688 28.6329 11.7031 28.4922 12.5703C28.3829 13.2266 27.8047 13.5547 27.3204 13.2344C27.0235 13.0391 26.9532 12.7031 27.0782 12.1016C27.1407 11.8125 27.2657 11.4375 27.3516 11.2656C27.5626 10.8516 28.1094 10.3828 28.5782 10.2109C29.1485 10 30.1094 9.95312 30.7032 10.1094C30.9766 10.1797 31.2344 10.2344 31.2813 10.2344C31.336 10.2344 31.3516 9.96094 31.3282 9.41406C31.2969 8.65625 31.2657 8.54688 31.0001 8.02344C30.6876 7.40625 30.3829 7.0625 29.1094 5.89062C28.6407 5.46094 27.8594 4.74219 27.3751 4.28906C25.0782 2.17188 24.336 1.63281 22.9297 1.01562C22.1329 0.664062 20.8126 0.304688 19.8204 0.15625C19.1641 0.0625 16.7891 -0.0078125 16.1876 0.046875ZM19.4219 9.64062C20.1407 9.9375 20.5938 10.625 20.5938 11.4062C20.5938 12.8516 19.086 13.7656 17.836 13.0781C16.4688 12.3359 16.4844 10.4141 17.8594 9.72656C18.3126 9.5 19.0001 9.46094 19.4219 9.64062ZM16.0001 33.1406C16.7032 33.4688 17.1172 33.4688 17.6954 33.1328C18.3751 32.7422 19.0704 32.8438 19.3594 33.375C19.5001 33.625 19.5001 35.2656 19.3594 36.0547C19.2188 36.8359 18.8751 38.3828 18.7266 38.8906C18.5938 39.3359 18.2813 39.7109 18.1094 39.6406C17.9532 39.5781 17.7344 38.9766 17.5157 38.0156C17.336 37.2031 17.1329 36.875 16.8282 36.875C16.4844 36.875 16.3516 37.1172 16.0704 38.2344C15.7344 39.5859 15.5547 39.8281 15.1954 39.4297C14.5626 38.75 13.8516 34.2344 14.2579 33.4609C14.586 32.8281 15.1251 32.7344 16.0001 33.1406Z" fill="white" fill-opacity="0.5"/>
<path d="M63.375 22.3359V32.6563H65.4062H67.4375V27.0703C67.4375 24 67.4531 21.4844 67.4766 21.4844C67.4922 21.4844 67.5938 21.5625 67.6875 21.6563C67.7891 21.7578 68.5234 22.4531 69.3125 23.2031C71.125 24.9219 73.9766 27.6328 74.8984 28.5156C75.2891 28.8828 76.0078 29.5703 76.5 30.0469C77.4375 30.9375 79.0547 32.4844 79.1953 32.6172C79.2344 32.6641 79.3516 32.7656 79.4531 32.8438L79.625 32.9922V22.6719V12.3438H77.5938H75.5625L75.5469 17.9297L75.5234 23.5078L75.1328 23.1484C74.9219 22.9531 74.4062 22.4688 74 22.0859C72.8984 21.0313 71.7266 19.9063 70.7578 18.9844C70.2812 18.5391 69.5312 17.8125 69.0781 17.3828C68.625 16.9531 67.9219 16.2813 67.5156 15.8984C67.1094 15.5078 66.0391 14.4922 65.1484 13.6328C64.25 12.7734 63.4844 12.0547 63.4453 12.0469C63.4062 12.0313 63.375 16.2109 63.375 22.3359Z" fill="white" fill-opacity="0.5"/>
<path d="M99.3906 22.5V32.6563H105.484H111.578V30.625V28.5938H107.516H103.453V26.5625V24.5313H106.5H109.547V22.5V20.4688H106.5H103.453V18.4375V16.4063H107.516H111.578V14.375V12.3438H105.484H99.3906V22.5Z" fill="white" fill-opacity="0.5"/>
<path d="M167.203 22.5V32.6563H173.258H179.312V30.6641V28.6719L175.273 28.6563L171.227 28.6328L171.203 26.5781L171.188 24.5313H174.234H177.281V22.5V20.4688H174.234H171.188V18.4375V16.4063H175.25H179.312V14.375V12.3438H173.258H167.203V22.5Z" fill="white" fill-opacity="0.5"/>
<path d="M44.5625 19.2734C44.5859 26.1016 44.5859 26.1328 44.7656 26.75C45.4062 29.0313 46.9453 30.9141 49 31.9531C51.2266 33.0781 54.1328 33.1016 56.3047 32.0156C57.3906 31.4688 58.5156 30.5313 59.2891 29.5234C60.0234 28.5625 60.6172 27.1406 60.7891 25.9063C60.8438 25.5156 60.875 23.0547 60.875 18.8594V12.4219H58.8438H56.8125V18.6484C56.8125 23.7578 56.7891 24.9766 56.6953 25.4141C56.3984 26.8359 55.2656 28.0703 53.8516 28.5156C53.2656 28.7031 52.2812 28.7188 51.6875 28.5625C50.6641 28.2891 49.5859 27.4375 49.1016 26.5156C48.5938 25.5625 48.6094 25.7734 48.6094 18.7734V12.4219H46.5781H44.5391L44.5625 19.2734Z" fill="white" fill-opacity="0.5"/>
<path d="M82.1406 22.5156L82.1641 32.6172H85.4844C89.0859 32.6094 89.5 32.5781 90.8828 32.1406C92.8359 31.5313 94.8359 30.0859 95.9609 28.4609C97.4141 26.3594 97.9766 23.3438 97.4687 20.3906C96.7578 16.2578 93.6094 13.2422 89.2734 12.5391C88.7344 12.4531 87.8047 12.4219 85.3437 12.4219H82.125L82.1406 22.5156ZM88.4453 16.4844C89.875 16.6641 90.9375 17.1719 91.8906 18.125C92.5703 18.8047 92.9844 19.4766 93.2578 20.3203C94.0703 22.8984 93.3594 25.8047 91.5547 27.2656C90.4687 28.1484 89.3359 28.5078 87.4609 28.5703L86.1875 28.6172V22.5625C86.1875 19.2344 86.2109 16.4844 86.2422 16.4609C86.3203 16.375 87.7187 16.3984 88.4453 16.4844Z" fill="white" fill-opacity="0.5"/>
<path d="M113.375 22.5391V32.6563H115.406H117.438V28.1797V23.7109L118.516 25.3516C119.102 26.25 120.414 28.2656 121.422 29.8203L123.258 32.6563H125.703C127.289 32.6563 128.141 32.625 128.141 32.5781C128.141 32.5313 127.219 31.0625 126.094 29.3125C124.969 27.5625 123.938 25.9531 123.789 25.7266L123.531 25.3203L124.094 25.0391C125.086 24.5547 125.797 23.8125 126.461 22.5547C126.984 21.5781 127.133 20.9453 127.18 19.5859C127.266 17.2344 126.805 16 125.305 14.5156C124.297 13.5156 123.07 12.8672 121.617 12.5703C120.992 12.4375 120.516 12.4219 117.148 12.4219H113.375V22.5391ZM120.422 16.4844C121.547 16.6484 122.328 17.1328 122.711 17.9219C123.398 19.3359 122.82 21.0938 121.438 21.7734C120.992 21.9922 120.977 21.9922 119.219 22.0156L117.438 22.0469V19.2266V16.4063H118.672C119.344 16.4063 120.133 16.4453 120.422 16.4844Z" fill="white" fill-opacity="0.5"/>
<path d="M130.016 22.5V32.5781H134.219C138.172 32.5781 138.469 32.5703 139.047 32.4219C141.125 31.8984 142.875 30.2031 143.531 28.0859C143.75 27.375 143.828 26.0156 143.688 25.1797C143.43 23.5391 142.375 21.8984 141.094 21.1484C140.82 20.9844 140.555 20.8281 140.5 20.7969C140.43 20.7422 140.453 20.6172 140.633 20.2266C141.07 19.25 141.211 18.5781 141.164 17.6172C141.141 16.9688 141.078 16.6172 140.93 16.1875C140.297 14.3672 138.656 12.9219 136.797 12.5469C136.313 12.4453 135.594 12.4219 133.102 12.4219H130.016V22.5ZM136.32 16.5156C137.68 17.1484 137.633 19.0859 136.242 19.7578C135.945 19.9063 134.867 20.0703 134.18 20.0781H134V18.2031V16.3281H134.961C135.805 16.3281 135.961 16.3516 136.32 16.5156ZM138.383 24.0078C139.289 24.4531 139.813 25.2656 139.813 26.25C139.813 26.9531 139.586 27.5234 139.109 28C138.508 28.6016 138.367 28.6328 136.055 28.6563L134 28.6797V26.2109V23.7422L135.977 23.7656L137.945 23.7891L138.383 24.0078Z" fill="white" fill-opacity="0.5"/>
<path d="M145.562 22.5V32.5781H147.594H149.625V22.5V12.4219H147.594H145.562V22.5Z" fill="white" fill-opacity="0.5"/>
<path d="M151.422 14.4141V16.4063H153.883H156.344V24.4922V32.5781H158.375H160.406V24.4922V16.4063H162.906H165.406V14.4141V12.4219H158.414H151.422V14.4141Z" fill="white" fill-opacity="0.5"/>
<path d="M59.5469 39.6797V44.6094H60.5234H61.5L61.5156 41.9531L61.5391 39.2969L63.9609 41.6094C65.2969 42.8828 66.5859 44.1172 66.8359 44.3594L67.2812 44.7969V39.8594V34.9219H66.3047H65.3203L65.3438 37.5781C65.3594 39.0391 65.3516 40.2344 65.3281 40.2344C65.2891 40.2344 64.2891 39.2891 60.8828 36.0234L59.5469 34.75V39.6797Z" fill="white" fill-opacity="0.5"/>
<path d="M93.375 39.6328V44.5312H94.3516H95.3281L95.3438 42.5781L95.3672 40.625L96.6875 42.4453C97.4141 43.4375 98.0312 44.2812 98.0625 44.3125C98.0859 44.3438 98.7188 43.5312 99.4688 42.5L100.836 40.625L100.859 42.5781L100.875 44.5312H101.852H102.828V39.6328V34.7344L102.602 35.0469C100.758 37.5703 98.125 41.1328 98.1016 41.1328C98.0859 41.1328 95.0938 37.0938 93.7109 35.1953L93.375 34.7344V39.6328Z" fill="white" fill-opacity="0.5"/>
<path d="M113.141 39.6797V44.6094H114.117H115.094L115.109 41.9531L115.133 39.2891L117.422 41.4844C118.672 42.6953 119.703 43.6641 119.703 43.6484C119.703 43.625 119.969 43.8828 120.289 44.2109L120.875 44.8047V39.8594V34.9219H119.898H118.922L118.906 37.5781L118.883 40.2266L117.352 38.7656C116.508 37.9609 115.211 36.7266 114.477 36.0234L113.141 34.75V39.6797Z" fill="white" fill-opacity="0.5"/>
<path d="M147.047 39.6328V44.5312H148.023H149L149.016 42.5781L149.039 40.625L150.359 42.4453C151.086 43.4375 151.703 44.2812 151.734 44.3125C151.758 44.3438 152.391 43.5312 153.141 42.5L154.508 40.625L154.531 42.5781L154.547 44.5312H155.523H156.5V39.6328V34.7344L156.273 35.0469C154.43 37.5703 151.797 41.1328 151.773 41.1328C151.758 41.1328 148.766 37.0938 147.383 35.1953L147.047 34.7344V39.6328Z" fill="white" fill-opacity="0.5"/>
<path d="M164.156 39.6797V44.6094H165.133H166.109L166.125 41.9531L166.148 39.2969L168.57 41.6094C169.906 42.8828 171.195 44.1172 171.445 44.3594L171.891 44.7969V39.8594V34.9219H170.914H169.938L169.922 37.5781L169.898 40.2266L168.367 38.7656C167.523 37.9609 166.227 36.7266 165.492 36.0234L164.156 34.75V39.6797Z" fill="white" fill-opacity="0.5"/>
<path d="M76.0312 39.4687C74.8906 42.0156 73.9219 44.1953 73.8672 44.3125L73.7734 44.5312H74.8125H75.8438L76.1641 43.8281L76.4922 43.125L78.1406 43.1406L79.7891 43.1641L80.0859 43.8281L80.3906 44.4922L81.4453 44.5156L82.4922 44.5391L80.3594 39.7891C79.1875 37.1719 78.2031 34.9922 78.1641 34.9453C78.125 34.8828 77.3359 36.5625 76.0312 39.4687ZM78.5938 40.4687L78.9766 41.3672L78.1562 41.3906C77.7109 41.3984 77.3281 41.3984 77.3125 41.3828C77.2891 41.3672 77.4609 40.9219 77.6875 40.4062C77.9141 39.8828 78.125 39.4844 78.1562 39.5156C78.1875 39.5469 78.3828 39.9766 78.5938 40.4687Z" fill="white" fill-opacity="0.5"/>
<path d="M106.734 37.5625C106.07 39.0547 105.523 40.2891 105.523 40.3125C105.516 40.3359 105.477 40.4219 105.43 40.5078C105.352 40.6484 104.164 43.2734 103.758 44.1953L103.617 44.5312H104.648H105.688L106.008 43.8281L106.336 43.125L107.984 43.1406L109.633 43.1641L109.93 43.8281L110.234 44.4922L111.289 44.5156L112.344 44.5391L110.969 41.4922C110.211 39.8047 109.562 38.4688 109.523 38.4922C109.477 38.5156 109.469 38.5 109.5 38.4453C109.555 38.3672 108.148 35.0781 107.992 34.9062C107.969 34.875 107.398 36.0703 106.734 37.5625ZM108.219 39.9609C108.312 40.1953 108.43 40.3906 108.469 40.3906C108.508 40.3906 108.523 40.4219 108.5 40.4609C108.477 40.5 108.539 40.7266 108.648 40.9688L108.844 41.4062H107.977C107.312 41.4062 107.117 41.3828 107.148 41.3047C107.406 40.6406 107.953 39.4688 107.992 39.4922C108.023 39.5156 108.125 39.7188 108.219 39.9609Z" fill="white" fill-opacity="0.5"/>
<path d="M124.086 39.0938C122.969 41.5938 122.211 43.3906 122.25 43.4453C122.281 43.5 122.273 43.5234 122.227 43.4922C122.18 43.4609 122.125 43.4844 122.102 43.5391C122.078 43.5859 121.969 43.8359 121.859 44.0781L121.656 44.5313H122.695H123.734L124.055 43.8281L124.383 43.125L126.031 43.1406L127.68 43.1641L127.977 43.8281L128.281 44.4922L129.336 44.5156L130.383 44.5391L128.25 39.7891C127.078 37.1719 126.094 34.9922 126.055 34.9453C126.016 34.8828 125.289 36.4219 124.086 39.0938ZM126.484 40.4688L126.867 41.3672L126.047 41.3906C125.602 41.3984 125.211 41.3984 125.195 41.375C125.18 41.3594 125.266 41.1094 125.398 40.8281C125.523 40.5391 125.641 40.2969 125.641 40.2734C125.719 40 126 39.4688 126.039 39.5078C126.07 39.5469 126.273 39.9766 126.484 40.4688Z" fill="white" fill-opacity="0.5"/>
<path d="M52.9844 39.7656V44.6094H55.875H58.7656V43.6719V42.7344H56.8516H54.9375V41.7188V40.7031H56.3828H57.8281V39.7266V38.75H56.3828H54.9375V37.8125V36.875H56.8516H58.7656V35.8984V34.9219H55.875H52.9844V39.7656Z" fill="white" fill-opacity="0.5"/>
<path d="M133.774 35.0391C133.195 35.1719 132.281 35.5781 132.281 35.7031C132.281 35.75 132.25 35.7734 132.211 35.75C132.094 35.6797 131.211 36.5469 130.844 37.0938C130.141 38.1484 129.867 39.5625 130.125 40.7813C130.32 41.7188 130.727 42.4375 131.453 43.1719C132.5 44.2109 133.61 44.6406 135.11 44.5781C137.61 44.4688 139.492 42.5781 139.672 39.9766L139.727 39.2188H137.25H134.781V40.1172V41.0156H136.11C136.844 41.0156 137.438 41.0469 137.438 41.0781C137.438 41.2031 137 41.7578 136.727 41.9844C136.578 42.1094 136.266 42.3047 136.031 42.4141C135.664 42.5859 135.492 42.6172 134.86 42.6172C134.219 42.6172 134.055 42.5859 133.672 42.4063C133.055 42.1172 132.563 41.6406 132.258 41.0234C132.047 40.5859 132.008 40.4141 131.992 39.875C131.969 38.8125 132.422 37.9453 133.313 37.3438C134.32 36.6719 135.688 36.7344 136.649 37.4922L136.945 37.7266L137.625 37.0391L138.313 36.3438L137.899 36.0156C137.422 35.6328 136.695 35.2734 136.094 35.1094C135.461 34.9375 134.359 34.9063 133.774 35.0391Z" fill="white" fill-opacity="0.5"/>
<path d="M140.484 39.7656V44.6094H143.375H146.266V43.6719V42.7344H144.352H142.438V41.7188V40.7031H143.883H145.328V39.7266V38.75H143.883H142.438V37.8125V36.875H144.352H146.266V35.8984V34.9219H143.375H140.484V39.7656Z" fill="white" fill-opacity="0.5"/>
<path d="M157.594 39.7656V44.6094H160.484H163.375V43.6719V42.7344H161.445H159.508L159.531 41.7188L159.555 40.7031H161H162.438V39.7266V38.75H160.992H159.547V37.8125V36.875H161.461H163.375V35.8984V34.9219H160.484H157.594V39.7656Z" fill="white" fill-opacity="0.5"/>
<path d="M44.8594 39.7656V44.5312H46.3594C47.8047 44.5312 48.8438 44.4297 48.8438 44.2891C48.8438 44.2578 48.8906 44.2422 48.9453 44.2578C49.1016 44.3203 50.0938 43.8047 50.5391 43.4297C51.0703 42.9922 51.6172 42.2656 51.8125 41.7422C52.2266 40.6328 52.2969 39.4688 52.0078 38.3516C51.6875 37.125 50.8672 36.1328 49.7031 35.5547C48.7578 35.0938 48.2266 35 46.4063 35H44.8594V39.7656ZM48.3984 37.0312C49.0859 37.2422 49.6641 37.7656 49.9844 38.4531C50.1875 38.8984 50.2109 39.0234 50.2109 39.7656C50.2109 40.4844 50.1875 40.6406 50 41.0234C49.7422 41.5938 49.2578 42.0703 48.6953 42.3281C48.3516 42.4844 48.1016 42.5391 47.5391 42.5625L46.8125 42.5938V39.7344V36.875H47.3516C47.6719 36.875 48.0938 36.9375 48.3984 37.0312Z" fill="white" fill-opacity="0.5"/>
<path d="M68.1406 35.9375V36.875H69.3125H70.4844V40.7031V44.5312H71.4609H72.4375V40.7031V36.875H73.6094H74.7812V35.9375V35H71.4609H68.1406V35.9375Z" fill="white" fill-opacity="0.5"/>
<path d="M83.2188 39.7656V44.5312H86.1094H89V43.5938V42.6562H87.0859H85.1719V38.8281V35H84.1953H83.2188V39.7656Z" fill="white" fill-opacity="0.5"/>
<path d="M172.75 35.9375V36.875H173.922H175.094V40.7031V44.5312H176.07H177.047V40.7031V36.875H178.219H179.391V35.9375V35H176.07H172.75V35.9375Z" fill="white" fill-opacity="0.5"/>
</svg>
