<svg width="44" height="42" viewBox="0 0 44 42" fill="none" xmlns="http://www.w3.org/2000/svg">
<path d="M3.14258 2.91774V26.7297H40.8569V2.91774C40.8569 1.60364 39.7571 0.5 38.4475 0.5H5.5519C4.24237 0.5 3.14258 1.60364 3.14258 2.91774ZM36.3001 22.156H7.69931V5.07267H36.2469V22.156H36.2991H36.3001Z" fill="#0965FF"/>
<path d="M40.8571 29.0947H32.9478L33.2619 30.8298H10.7381V29.0947H3.14286L0 39.1343C0 40.4484 1.04762 41.4996 2.35714 41.4996H41.6429C42.9524 41.4996 44 40.4484 44 39.1343L40.8571 29.0947ZM26.4002 39.0295H17.3379C16.8663 39.0295 16.4478 38.5039 16.4478 37.8202C16.4478 37.1364 16.8141 36.6108 17.3379 36.6108H26.4002C26.8718 36.6108 27.2903 37.1364 27.2903 37.8202C27.2903 38.5039 26.8708 39.0295 26.4002 39.0295Z" fill="#0C1331"/>
</svg>
