<svg width="41" height="41" viewBox="0 0 41 41" fill="none" xmlns="http://www.w3.org/2000/svg">
<path d="M17.1377 21.9951H23.8109V24.4823H17.1377V21.9951Z" fill="#0965FF"/>
<path d="M4.24414 8.19434H7.66121V10.5967H4.24414V8.19434V8.19434Z" fill="#0965FF"/>
<path d="M5.75977 5.034L6.72074 2.83105L9.85432 4.19799L8.89334 6.40094L5.75977 5.034V5.034Z" fill="#0965FF"/>
<path d="M5.76367 13.7595L8.89725 12.3926L9.85823 14.5955L6.72465 15.9625L5.76367 13.7595Z" fill="#0965FF"/>
<path d="M33.2871 8.19434H36.7042V10.5967H33.2871V8.19434V8.19434Z" fill="#0965FF"/>
<path d="M31.1104 4.1892L34.2439 2.82227L35.2049 5.02521L32.0713 6.39215L31.1104 4.1892V4.1892Z" fill="#0965FF"/>
<path d="M31.1143 14.5867L32.0752 12.3838L35.2088 13.7507L34.2478 15.9537L31.1143 14.5867Z" fill="#0965FF"/>
<path d="M19.2736 19.5927V11.9589H21.676V19.5927H26.3472V15.789C28.334 14.0793 29.4615 11.6329 29.4615 8.98717C29.4615 4.03113 25.4303 0 20.4748 0C15.5194 0 11.4873 4.03113 11.4873 8.98637C11.4873 11.6329 12.6148 14.0785 14.6017 15.7882V19.5919H19.2736V19.5927Z" fill="#0965FF"/>
<path d="M40.2312 26.8723C38.9067 25.0193 36.3216 24.59 34.4686 25.9145L31.3005 28.1791C31.375 28.5115 31.4159 28.8574 31.4159 29.2122C31.4159 31.8203 29.2937 33.9424 26.6855 33.9424H19.6471V31.54H26.6855C27.9692 31.54 29.0134 30.4958 29.0134 29.2122C29.0134 27.9285 27.9692 26.8843 26.6855 26.8843H11.6182V39.2516H11.6278L13.9613 40.9997H27.6144L39.2734 32.6347C41.1265 31.3102 41.5558 28.7253 40.2312 26.8723V26.8723Z" fill="#0C1331"/>
<path d="M9.21575 24.4824H0V41.0001H9.21575V24.4824Z" fill="#0C1331"/>
</svg>
