<svg width="165" height="40" viewBox="0 0 165 40" fill="none" xmlns="http://www.w3.org/2000/svg">
<path fill-rule="evenodd" clip-rule="evenodd" d="M18 3C18 7.97056 13.9706 12 9 12C4.02944 12 0 7.97056 0 3H18Z" fill="#132EB1"/>
<path fill-rule="evenodd" clip-rule="evenodd" d="M17.64 3.15008C17.64 8.02123 13.6912 11.9701 8.82 11.9701C3.94885 11.9701 0 8.02123 0 3.15008C0 3.15002 0 3.14996 0 3.1499H17.64C17.64 3.14996 17.64 3.15002 17.64 3.15008Z" fill="#132EB1"/>
<path fill-rule="evenodd" clip-rule="evenodd" d="M0 30.1896H13.3322L16.0665 28.665H36.225V39.375H0V30.1896Z" fill="#132EB1"/>
<path fill-rule="evenodd" clip-rule="evenodd" d="M27.1782 3.15002L0 29.5075V39.3562L9.06567 39.375L36.225 12.9798L36.2062 3.15002H27.1782Z" fill="url(#paint0_linear_2616_3388)"/>
<path fill-rule="evenodd" clip-rule="evenodd" d="M9.13501 39.375L20.1379 28.665H28.665L9.13501 39.375Z" fill="#132887"/>
<path d="M58.672 20.26V17.2927L67.0636 9.73271H58.7287V6.19841H73.603V9.14681L64.8523 16.6879H73.6786V20.26H58.672ZM91.6129 6.19841V9.43031H82.6165V11.4715H91.3294V14.8168H82.6165V16.9903H91.7263V20.26H78.1372V6.19841H91.6129ZM100.596 11.6794V20.26H96.1921V6.19841H100.804L108.704 14.6278V6.19841H113.089V20.26H108.723L100.596 11.6794ZM122.419 20.26H117.901V6.19841H122.419V20.26ZM131.97 9.75161H126.432V6.19841H142.006V9.75161H136.468V20.26H131.97V9.75161ZM146.019 6.19841H150.537V11.2825H158.002V6.19841H162.519V20.26H158.002V14.779H150.537V20.26H146.019V6.19841Z" fill="white"/>
<path d="M59.7397 35.2555V31.7118H60.6217C60.9262 31.7118 61.1808 31.7564 61.3856 31.8457C61.5956 31.9297 61.7636 32.053 61.8896 32.2158C62.0156 32.3785 62.1048 32.5754 62.1573 32.8064C62.2151 33.0322 62.244 33.2868 62.244 33.5703C62.244 33.88 62.2046 34.1425 62.1258 34.3578C62.0471 34.573 61.9421 34.7489 61.8108 34.8854C61.6796 35.0167 61.53 35.1112 61.362 35.1689C61.194 35.2267 61.0207 35.2555 60.8422 35.2555H59.7397ZM58.5033 30.6723V36.295H60.9288C61.3593 36.295 61.7321 36.2242 62.0471 36.0824C62.3673 35.9354 62.6325 35.7359 62.8425 35.4839C63.0577 35.2319 63.2178 34.9327 63.3228 34.5862C63.4278 34.2397 63.4803 33.8617 63.4803 33.4522C63.4803 32.9849 63.4147 32.578 63.2835 32.2315C63.1575 31.885 62.979 31.5963 62.748 31.3653C62.5222 31.1343 62.2518 30.961 61.9368 30.8455C61.6271 30.73 61.2911 30.6723 60.9288 30.6723H58.5033ZM69.9894 30.6723V36.295H74.2576V35.2555H71.2257V33.8774H73.9505V32.9167H71.2257V31.7118H74.1946V30.6723H69.9894ZM80.7448 30.6723V36.295H81.9024V32.5308H81.9182L84.2571 36.295H85.4934V30.6723H84.3358V34.4444H84.3201L81.9733 30.6723H80.7448ZM93.4751 31.7118V36.295H94.7115V31.7118H96.3967V30.6723H91.7898V31.7118H93.4751ZM103.389 34.1215L104.121 32.0583H104.137L104.846 34.1215H103.389ZM103.507 30.6723L101.381 36.295H102.625L103.066 35.0429H105.168L105.594 36.295H106.877L104.775 30.6723H103.507ZM113.011 30.6723V36.295H116.988V35.2555H114.248V30.6723H113.011ZM131.169 30.6723V36.295H132.405V30.6723H131.169ZM140.385 31.7118V36.295H141.621V31.7118H143.306V30.6723H138.7V31.7118H140.385Z" fill="#0966FF"/>
<path fill-rule="evenodd" clip-rule="evenodd" d="M120.646 0.000110755L120.645 0.0559278C120.645 1.93871 122.197 3.465 124.11 3.465C126.024 3.465 127.575 1.93871 127.575 0.0559278L127.575 0L120.646 0.000110755Z" fill="#0965FF"/>
<defs>
<linearGradient id="paint0_linear_2616_3388" x1="18.1125" y1="57.4875" x2="54.3375" y2="21.2625" gradientUnits="userSpaceOnUse">
<stop stop-color="#0965FF"/>
<stop offset="1" stop-color="#00BAFF"/>
</linearGradient>
</defs>
</svg>
