<?xml version="1.0" encoding="utf-8"?>
<!-- Generator: Adobe Illustrator 27.8.0, SVG Export Plug-In . SVG Version: 6.00 Build 0)  -->
<svg version="1.1" id="Layer_1" xmlns="http://www.w3.org/2000/svg" xmlns:xlink="http://www.w3.org/1999/xlink" x="0px" y="0px"
	 viewBox="0 0 198.89 197.65" style="enable-background:new 0 0 198.89 197.65;" xml:space="preserve">
<g>
	<polygon points="114.26,55.67 114.26,149.27 90.55,149.27 90.55,108.05 82.41,114.78 62.54,131.24 42.24,115.29 33.7,108.59 
		33.7,187.67 8.1,187.67 8.1,56.42 33.7,76.52 62.11,98.84 90.55,75.3 	"/>
	<path d="M189.38,96.4c0,24.37-6.56,51.97-24.25,67.41c-10.83,9.45-34.73,23.86-60.66,23.86H44.99v-25.98h59.92
		c47.06-0.69,60.21-39.46,60.21-65.29c0-24.88-11.47-63.46-73.38-63.46H33.7V58.5L8.1,38.39V7.72c0.6,0,1.2,0.01,1.8,0.02L9.86,7.71
		h82.19c33.3-0.19,62.24,15.11,71.68,24.72C181.45,50.47,189.38,72.83,189.38,96.4z"/>
</g>
</svg>
