<svg width="64" height="64" viewBox="0 0 64 64" fill="none" xmlns="http://www.w3.org/2000/svg">
<path d="M36.7673 18.0262V48.3343H29.1377V34.9871L26.5184 37.1663L20.1245 42.4961L13.5922 37.3315L10.8442 35.162V60.7684H2.60648V18.2691L10.8442 24.7775L19.9861 32.0049L29.1377 24.3825L36.7673 18.0262Z" fill="white"/>
<path d="M60.9398 31.2148C60.9398 39.1059 58.8289 48.0429 53.1365 53.0425C49.6516 56.1024 41.9609 60.7684 33.617 60.7684H14.4772V52.356H33.7586C48.9018 52.1326 53.1333 39.5787 53.1333 31.2148C53.1333 23.1585 49.4424 10.6661 29.5207 10.6661H10.8442V18.9426L2.60648 12.4309V2.49978C2.79955 2.49978 2.99262 2.50302 3.18569 2.50625L3.17282 2.49654H29.6204C40.3359 2.43502 49.6484 7.38923 52.686 10.501C58.3881 16.3424 60.9398 23.5827 60.9398 31.2148Z" fill="white"/>
</svg>
