<svg width="88" height="20" viewBox="0 0 88 20" fill="none" xmlns="http://www.w3.org/2000/svg">
<path fill-rule="evenodd" clip-rule="evenodd" d="M37.0319 9.80504L28.9854 0H24.4269L32.4735 9.80496L24 20L28.6653 20L34.7527 12.5823L40.8402 20L45.321 20L39.674 13.025L37.0319 9.80504ZM36 6H41L45.3517 0H40.7932L36 6Z" fill="#031926"/>
<path d="M56 0V16H67V20H52L52.0728 0H56Z" fill="#031926"/>
<path d="M12 0L20 20H16L10 5L4 20H0L8 0H12Z" fill="#031926"/>
<path d="M83 8V12H72V8H83Z" fill="#04899D"/>
<path d="M88 16V20H72V16H88Z" fill="#975CB1"/>
<path d="M88 0V4H72V0H88Z" fill="#01C6DA"/>
</svg>
