<svg width="127" height="24" viewBox="0 0 127 24" fill="none" xmlns="http://www.w3.org/2000/svg">
<g clip-path="url(#clip0_14_16)">
<path fill-rule="evenodd" clip-rule="evenodd" d="M14.4207 0C18.253 0 21.3597 3.17471 21.3597 7.09091C21.3597 8.06022 21.1693 8.98411 20.8248 9.82568L30.9427 9.82512L28.9725 4.38816L24.7042 4.38835V0H31.932L35.492 9.82512L39.1847 9.82524V14.1748L37.0679 14.1744L40.6289 24H36.0786L32.5292 14.2037L20.8368 14.2036C21.1737 15.0373 21.3597 15.951 21.3597 16.9091C21.3597 20.7861 18.3148 23.9364 14.5354 23.999L14.4207 24H2.14401V17.6727H6.37615L6.37597 19.6363L14.4207 19.6364C15.8946 19.6364 17.0895 18.4153 17.0895 16.9091C17.0895 15.4179 15.9184 14.2063 14.4648 14.1822L14.4207 14.1818L0 14.1889V9.82524L14.4207 9.81818C15.8946 9.81818 17.0895 8.59714 17.0895 7.09091C17.0895 5.59974 15.9184 4.38809 14.4648 4.364L14.4207 4.36364L6.36558 4.3632L6.3605 6.52427H2.12837L2.14401 0H14.4207Z" fill="white"/>
<path d="M57.1854 9.32039C58.9452 9.32039 60.2783 8.20511 60.2783 6.73269C60.2783 5.741 59.7146 4.92794 58.8162 4.52199C59.5446 4.10138 60.0215 3.37075 60.0215 2.55873C60.0215 1.21613 58.7879 0.23301 57.0974 0.23301H52.7911V9.32039H57.1854ZM56.6431 3.72816H55.2995V2.17476H56.6429C57.1989 2.17476 57.5419 2.48842 57.5419 2.95146C57.542 3.41449 57.199 3.72816 56.6431 3.72816ZM56.7197 7.2233H55.2995V5.5534H56.7197C57.2858 5.5534 57.6559 5.89682 57.6559 6.38455C57.6559 6.87988 57.2858 7.2233 56.7197 7.2233ZM72.5164 9.32039V7.14889H68.3679V5.78851H72.0468V3.73503H68.3679V2.3971H72.4012V0.23301H65.7513V9.32039H72.5164ZM82.5848 9.51456C85.1345 9.51443 87.0891 7.89797 87.453 5.51661H84.7558C84.4876 6.52305 83.6527 7.17784 82.5905 7.17784C81.2351 7.17784 80.2409 6.16157 80.2409 4.76466C80.2409 3.36231 81.2351 2.33116 82.5905 2.33116C83.598 2.33116 84.425 2.9342 84.7536 3.86301H87.4255C87.0365 1.56666 85.0934 0 82.5848 0C79.6712 0 77.4953 2.0407 77.4953 4.76479C77.4953 7.47386 79.6712 9.51456 82.5848 9.51456ZM95.5139 9.32039V5.30558L98.2476 9.32039H101.363L98.0262 4.63481L101.079 0.23301H98.0334L95.5139 4.0636V0.23301H92.8879V9.32039H95.5139ZM112.993 9.32039V7.14889H108.845V5.78851H112.524V3.73503H108.845V2.3971H112.878V0.23301H106.228V9.32039H112.993ZM121.219 9.32039V6.53991H122.176L123.73 9.32039H126.676L124.774 6.01544C125.72 5.47798 126.294 4.56418 126.294 3.44903C126.294 1.54938 124.797 0.23301 122.732 0.23301H118.58V9.32039H121.219ZM122.402 4.38835H121.203V2.4466H122.402C123.137 2.4466 123.559 2.85577 123.559 3.41467C123.559 3.97368 123.137 4.38835 122.402 4.38835Z" fill="white"/>
<path d="M53.3796 23.3229L54.332 21.2995H58.6767L59.6398 23.3229H60.2284L56.7826 16.1334H56.2368L52.7911 23.3229H53.3796ZM58.4369 20.8706H54.5283L56.4773 16.7464L58.4369 20.8706ZM69.3486 23.3229V22.8504H65.0116V16.1334H64.4628V23.3229H69.3486ZM78.5231 23.3229V22.8504H74.1861V16.1334H73.6373V23.3229H78.5231ZM83.3547 23.3229V16.1334H82.8118V23.3229H83.3547ZM88.2319 23.3229L89.1843 21.2995H93.529L94.4921 23.3229H95.0807L91.6349 16.1334H91.0891L87.6434 23.3229H88.2319ZM93.2892 20.8706H89.3805L91.3295 16.7464L93.2892 20.8706ZM99.8591 23.3229V17.0783L104.947 23.3229H105.395V16.1334H104.851V22.378L99.7737 16.1334H99.3151V23.3229H99.8591ZM114.123 23.3786C114.66 23.3786 115.159 23.2929 115.62 23.1215C116.082 22.9501 116.473 22.6999 116.795 22.3709L116.452 22.0315C115.844 22.6074 115.075 22.8953 114.144 22.8953C113.515 22.8953 112.942 22.7582 112.427 22.484C111.912 22.2098 111.508 21.831 111.214 21.3477C110.921 20.8644 110.774 20.3245 110.774 19.7281C110.774 19.1317 110.921 18.5918 111.214 18.1085C111.508 17.6252 111.912 17.2465 112.427 16.9723C112.942 16.698 113.515 16.5609 114.144 16.5609C115.082 16.5609 115.851 16.8454 116.452 17.4144L116.795 17.0751C116.473 16.746 116.084 16.4975 115.626 16.3296C115.168 16.1616 114.667 16.0776 114.123 16.0776C113.386 16.0776 112.722 16.2353 112.132 16.5507C111.542 16.866 111.076 17.3013 110.737 17.8566C110.397 18.4119 110.227 19.0357 110.227 19.7281C110.227 20.4205 110.397 21.0444 110.737 21.5996C111.076 22.1549 111.542 22.5902 112.132 22.9056C112.722 23.2209 113.386 23.3786 114.123 23.3786ZM126.676 23.3229V22.8504H122.063V19.9027H126.046V19.4405H122.063V16.6058H126.516V16.1334H121.518V23.3229H126.676Z" fill="white"/>
</g>
<defs>
<clipPath id="clip0_14_16">
<rect width="127" height="24" fill="white"/>
</clipPath>
</defs>
</svg>
