<svg width="41" height="24" viewBox="0 0 41 24" fill="none" xmlns="http://www.w3.org/2000/svg">
<path fill-rule="evenodd" clip-rule="evenodd" d="M14.4207 0C18.253 0 21.3597 3.17471 21.3597 7.09091C21.3597 8.06022 21.1693 8.98411 20.8248 9.82568L30.9427 9.82512L28.9725 4.38816L24.7042 4.38835V0H31.932L35.492 9.82512L39.1847 9.82524V14.1748L37.0679 14.1744L40.6289 24H36.0786L32.5292 14.2037L20.8368 14.2036C21.1737 15.0373 21.3597 15.951 21.3597 16.9091C21.3597 20.7861 18.3148 23.9364 14.5354 23.999L14.4207 24H2.14401V17.6727H6.37615L6.37597 19.6363L14.4207 19.6364C15.8946 19.6364 17.0895 18.4153 17.0895 16.9091C17.0895 15.4179 15.9184 14.2063 14.4648 14.1822L14.4207 14.1818L0 14.1889V9.82524L14.4207 9.81818C15.8946 9.81818 17.0895 8.59714 17.0895 7.09091C17.0895 5.59974 15.9184 4.38809 14.4648 4.364L14.4207 4.36364L6.36558 4.3632L6.3605 6.52427H2.12837L2.14401 0H14.4207Z" fill="black"/>
</svg>
