<svg width="173" height="40" viewBox="0 0 173 40" fill="none" xmlns="http://www.w3.org/2000/svg">
<path fill-rule="evenodd" clip-rule="evenodd" d="M18 3C18 7.97056 13.9706 12 9 12C4.02944 12 0 7.97056 0 3H18Z" fill="#132EB1"/>
<path fill-rule="evenodd" clip-rule="evenodd" d="M17.64 3.1499C17.64 8.02105 13.6912 11.9699 8.82 11.9699C3.94885 11.9699 0 8.02105 0 3.1499H17.64Z" fill="#132EB1"/>
<path fill-rule="evenodd" clip-rule="evenodd" d="M0 30.1894H13.3322L16.0665 28.6648H36.225V39.3748H0V30.1894Z" fill="#132EB1"/>
<path fill-rule="evenodd" clip-rule="evenodd" d="M27.1782 3.1499L0 29.5074V39.356L9.06567 39.3749L36.225 12.9797L36.2062 3.1499H27.1782Z" fill="url(#paint0_linear_1507_15148)"/>
<path fill-rule="evenodd" clip-rule="evenodd" d="M9.13477 39.375L20.1377 28.665H28.6648L9.13477 39.375Z" fill="#132887"/>
<path d="M58.5397 20.26H74.8126V15.9697H66.4966L74.737 9.63821V6.19841H58.6342V10.4509H66.4588L58.5397 16.7824V20.26ZM93.7237 6.19841H79.0195V20.26H93.8561V16.6312H84.8029V14.9869H93.4402V11.3014H84.8029V9.78941H93.7237V6.19841ZM103.648 12.7L111.227 20.26H116.727V6.19841H111.095V13.3993L103.875 6.19841H98.0158V20.26H103.648V12.7ZM127.003 20.26V6.19841H121.239V20.26H127.003ZM136.608 10.4509V20.26H142.353V10.4509H148.099V6.19841H130.862V10.4509H136.608ZM151.959 6.19841V20.26H157.724V15.1192H164.452V20.26H170.198V6.19841H164.452V10.999H157.724V6.19841H151.959Z" fill="#0C1331"/>
<path d="M59.7397 35.2554V31.7117H60.6217C60.9262 31.7117 61.1808 31.7563 61.3856 31.8455C61.5956 31.9295 61.7636 32.0529 61.8896 32.2157C62.0156 32.3784 62.1048 32.5753 62.1573 32.8063C62.2151 33.032 62.244 33.2867 62.244 33.5702C62.244 33.8799 62.2046 34.1424 62.1258 34.3577C62.0471 34.5729 61.9421 34.7488 61.8108 34.8853C61.6796 35.0165 61.53 35.111 61.362 35.1688C61.194 35.2265 61.0207 35.2554 60.8422 35.2554H59.7397ZM58.5033 30.6722V36.2949H60.9288C61.3593 36.2949 61.7321 36.224 62.0471 36.0823C62.3673 35.9353 62.6325 35.7358 62.8425 35.4838C63.0577 35.2318 63.2178 34.9325 63.3228 34.586C63.4278 34.2395 63.4803 33.8615 63.4803 33.452C63.4803 32.9848 63.4147 32.5779 63.2835 32.2314C63.1575 31.8849 62.979 31.5962 62.748 31.3652C62.5222 31.1342 62.2518 30.9609 61.9368 30.8454C61.6271 30.7299 61.2911 30.6722 60.9288 30.6722H58.5033ZM69.9894 30.6722V36.2949H74.2576V35.2554H71.2257V33.8773H73.9505V32.9165H71.2257V31.7117H74.1946V30.6722H69.9894ZM80.7448 30.6722V36.2949H81.9024V32.5307H81.9182L84.2571 36.2949H85.4934V30.6722H84.3358V34.4443H84.3201L81.9733 30.6722H80.7448ZM93.4751 31.7117V36.2949H94.7115V31.7117H96.3967V30.6722H91.7898V31.7117H93.4751ZM103.389 34.1214L104.121 32.0582H104.137L104.846 34.1214H103.389ZM103.507 30.6722L101.381 36.2949H102.625L103.066 35.0428H105.168L105.594 36.2949H106.877L104.775 30.6722H103.507ZM113.011 30.6722V36.2949H116.988V35.2554H114.248V30.6722H113.011ZM131.169 30.6722V36.2949H132.405V30.6722H131.169ZM140.385 31.7117V36.2949H141.621V31.7117H143.306V30.6722H138.7V31.7117H140.385Z" fill="#0966FF"/>
<path fill-rule="evenodd" clip-rule="evenodd" d="M120.646 0.000110755L120.645 0.0559278C120.645 1.93871 122.197 3.465 124.11 3.465C126.024 3.465 127.575 1.93871 127.575 0.0559278L127.575 0L120.646 0.000110755Z" fill="#0965FF"/>
<defs>
<linearGradient id="paint0_linear_1507_15148" x1="18.1125" y1="57.4874" x2="54.3375" y2="21.2624" gradientUnits="userSpaceOnUse">
<stop stop-color="#0965FF"/>
<stop offset="1" stop-color="#00BAFF"/>
</linearGradient>
</defs>
</svg>
