<svg width="66" height="65" viewBox="0 0 66 65" fill="none" xmlns="http://www.w3.org/2000/svg">
<circle cx="33" cy="32.5" r="31.5" fill="#132EB1" stroke="#132EB1" stroke-width="2"/>
<g clip-path="url(#clip0_1_138)">
<path d="M33.0039 17.5V11.875L25.5039 19.375L33.0039 26.875V21.25C39.2102 21.25 44.2539 26.2937 44.2539 32.5C44.2539 34.3937 43.7852 36.1938 42.9414 37.75L45.6789 40.4875C47.1414 38.1812 48.0039 35.4438 48.0039 32.5C48.0039 24.2125 41.2914 17.5 33.0039 17.5ZM33.0039 43.75C26.7977 43.75 21.7539 38.7062 21.7539 32.5C21.7539 30.6063 22.2227 28.8062 23.0664 27.25L20.3289 24.5125C18.8664 26.8187 18.0039 29.5562 18.0039 32.5C18.0039 40.7875 24.7164 47.5 33.0039 47.5V53.125L40.5039 45.625L33.0039 38.125V43.75Z" fill="white"/>
</g>
<defs>
<clipPath id="clip0_1_138">
<rect width="45" height="45" fill="white" transform="translate(10.5039 10)"/>
</clipPath>
</defs>
</svg>
