<svg width="134" height="30" viewBox="0 0 134 30" fill="none" xmlns="http://www.w3.org/2000/svg">
<g clip-path="url(#clip0_1_69)">
<path fill-rule="evenodd" clip-rule="evenodd" d="M13.8871 4.79883C13.8871 8.51087 10.7799 11.5201 6.94183 11.5201C3.10382 11.5201 0 8.51087 0 4.79883H13.8871Z" fill="white"/>
<path fill-rule="evenodd" clip-rule="evenodd" d="M0 25.4032H10.498L12.6484 24.2432H28.5224V32.4008H0V25.4032Z" fill="white"/>
<path fill-rule="evenodd" clip-rule="evenodd" d="M21.3996 4.79883L0 24.8841V32.3867L7.13669 32.4003L28.5224 12.2912L28.505 4.79883H21.3996Z" fill="white"/>
<path fill-rule="evenodd" clip-rule="evenodd" d="M7.19238 32.4008L15.8566 24.2432H22.5688L7.19238 32.4008Z" fill="#D8D8D8"/>
<path d="M58.7461 15.6535V12.385H52.1975L58.6869 7.5607V4.94043H46.0072V8.18164H52.1661L45.9307 13.0059V15.6569H58.7426L58.7461 15.6535ZM73.7363 15.6535V12.8899H66.61V11.6378H73.4092V8.82989H66.61V7.6767H73.6319V4.94043H62.0552V15.6535H73.7363ZM81.4506 15.6535V9.89437L87.4181 15.6535H91.7468V4.94043H87.3137V10.4266L81.628 4.94043H77.0141V15.6535H81.4471H81.4506ZM99.8334 15.6535V4.94043H95.296V15.6535H99.8334ZM111.922 15.6535V8.18164H116.445V4.94043H102.875V8.18164H107.398V15.6569H111.922V15.6535ZM124.024 15.6535V11.7367H129.32V15.6535H133.843V4.94043H129.32V8.59788H124.024V4.94043H119.486V15.6535H124.024Z" fill="white"/>
<path fill-rule="evenodd" clip-rule="evenodd" d="M94.8301 0V0.0409417C94.8301 1.4739 96.0514 2.63733 97.5581 2.63733C99.0648 2.63733 100.286 1.4739 100.286 0.0409417V0H94.8301V0Z" fill="white"/>
<path d="M47.9699 28.1983C48.3074 28.1983 48.6032 28.1437 48.8537 28.0345C49.1042 27.9254 49.313 27.7718 49.48 27.5808C49.6471 27.3897 49.7723 27.1611 49.8558 26.8984C49.9393 26.6357 49.9811 26.3457 49.9811 26.0352C49.9811 25.6804 49.9289 25.3699 49.828 25.1038C49.7271 24.8377 49.5879 24.6193 49.407 24.4453C49.226 24.2679 49.0138 24.1383 48.7667 24.0496C48.5197 23.9609 48.2552 23.9165 47.9699 23.9165H46.0596V28.2017H47.9699V28.1983ZM47.9003 27.4068H47.0339V24.708H47.7298C47.9699 24.708 48.1717 24.7422 48.3352 24.807C48.4988 24.8718 48.631 24.9673 48.7284 25.0936C48.8259 25.2198 48.8989 25.3665 48.9407 25.5405C48.9824 25.7145 49.0068 25.909 49.0068 26.1239C49.0068 26.3594 48.9755 26.5606 48.9129 26.7244C48.8502 26.8882 48.7667 27.0212 48.6658 27.1236C48.5649 27.226 48.4431 27.2976 48.3109 27.342C48.1787 27.3863 48.043 27.4068 47.9003 27.4068ZM58.4609 28.1983V27.4068H56.0739V26.3559H58.2208V25.6224H56.0739V24.7046H58.4122V23.9131H55.0996V28.1983H58.4609ZM64.4772 28.1983V25.329H64.4911L66.3318 28.1983H67.3061V23.9131H66.3944V26.7858H66.3805L64.5329 23.9131H63.5655V28.1983H64.4772ZM74.5611 28.1983V24.7046H75.8868V23.9131H72.2611V24.7046H73.5868V28.1983H74.5611ZM80.7896 28.1983L81.1376 27.243H82.7939L83.1279 28.1983H84.137L82.4807 23.9131H81.4821L79.8084 28.1983H80.7896ZM82.5364 26.5436H81.3881L81.9657 24.9707H81.9796L82.5364 26.5436ZM92.0984 28.1983V27.4068H89.941V23.9131H88.9667V28.1983H92.0984ZM104.235 28.1983V23.9131H103.261V28.1983H104.235ZM111.49 28.1983V24.7046H112.816V23.9131H109.19V24.7046H110.516V28.1983H111.49Z" fill="white"/>
</g>
<defs>
<clipPath id="clip0_1_69">
<rect width="134" height="30" fill="white"/>
</clipPath>
</defs>
</svg>
