<svg width="166" height="40" viewBox="0 0 166 40" fill="none" xmlns="http://www.w3.org/2000/svg">
<path fill-rule="evenodd" clip-rule="evenodd" d="M18.835 3C18.835 7.97056 14.8055 12 9.83496 12C4.8644 12 0.834961 7.97056 0.834961 3H18.835Z" fill="#132EB1"/>
<path fill-rule="evenodd" clip-rule="evenodd" d="M18.475 3.15002C18.475 8.02118 14.5261 11.97 9.65496 11.97C4.78381 11.97 0.834961 8.02118 0.834961 3.15002H18.475Z" fill="#132EB1"/>
<path fill-rule="evenodd" clip-rule="evenodd" d="M0.834961 30.1896H14.1671L16.9014 28.665H37.06V39.375H0.834961V30.1896Z" fill="#132EB1"/>
<path fill-rule="evenodd" clip-rule="evenodd" d="M28.0131 3.15002L0.834961 29.5075V39.3562L9.90063 39.375L37.06 12.9798L37.0411 3.15002H28.0131Z" fill="url(#paint0_linear_1_123)"/>
<path fill-rule="evenodd" clip-rule="evenodd" d="M9.96973 39.375L20.9726 28.665H29.4997L9.96973 39.375Z" fill="#132887"/>
<path d="M59.5069 20.26V17.2927L67.8985 9.73271H59.5636V6.19841H74.4379V9.14681L65.6872 16.6879H74.5135V20.26H59.5069ZM92.4478 6.19841V9.43031H83.4514V11.4715H92.1643V14.8168H83.4514V16.9903H92.5612V20.26H78.9721V6.19841H92.4478ZM101.431 11.6794V20.26H97.027V6.19841H101.639L109.539 14.6278V6.19841H113.924V20.26H109.558L101.431 11.6794ZM123.254 20.26H118.736V6.19841H123.254V20.26ZM132.805 9.75161H127.267V6.19841H142.841V9.75161H137.303V20.26H132.805V9.75161ZM146.854 6.19841H151.371V11.2825H158.837V6.19841H163.354V20.26H158.837V14.779H151.371V20.26H146.854V6.19841Z" fill="#0C1331"/>
<path d="M60.5747 35.2555V31.7118H61.4567C61.7612 31.7118 62.0158 31.7564 62.2205 31.8457C62.4305 31.9297 62.5985 32.053 62.7245 32.2158C62.8505 32.3785 62.9398 32.5754 62.9923 32.8064C63.05 33.0322 63.0789 33.2868 63.0789 33.5703C63.0789 33.88 63.0395 34.1425 62.9608 34.3578C62.882 34.573 62.777 34.7489 62.6458 34.8854C62.5145 35.0167 62.3649 35.1112 62.1969 35.1689C62.0289 35.2267 61.8557 35.2555 61.6772 35.2555H60.5747ZM59.3383 30.6723V36.295H61.7638C62.1943 36.295 62.567 36.2242 62.882 36.0824C63.2023 35.9354 63.4674 35.7359 63.6774 35.4839C63.8927 35.2319 64.0528 34.9327 64.1578 34.5862C64.2628 34.2397 64.3153 33.8617 64.3153 33.4522C64.3153 32.9849 64.2497 32.578 64.1184 32.2315C63.9924 31.885 63.8139 31.5963 63.5829 31.3653C63.3572 31.1343 63.0868 30.961 62.7718 30.8455C62.462 30.73 62.126 30.6723 61.7638 30.6723H59.3383ZM70.8243 30.6723V36.295H75.0926V35.2555H72.0607V33.8774H74.7855V32.9167H72.0607V31.7118H75.0296V30.6723H70.8243ZM81.5798 30.6723V36.295H82.7374V32.5308H82.7531L85.092 36.295H86.3284V30.6723H85.1708V34.4444H85.155L82.8083 30.6723H81.5798ZM94.3101 31.7118V36.295H95.5464V31.7118H97.2317V30.6723H92.6248V31.7118H94.3101ZM104.224 34.1215L104.956 32.0583H104.972L105.68 34.1215H104.224ZM104.342 30.6723L102.215 36.295H103.46L103.901 35.0429H106.003L106.429 36.295H107.712L105.61 30.6723H104.342ZM113.846 30.6723V36.295H117.823V35.2555H115.082V30.6723H113.846ZM132.004 30.6723V36.295H133.24V30.6723H132.004ZM141.22 31.7118V36.295H142.456V31.7118H144.141V30.6723H139.534V31.7118H141.22Z" fill="#0966FF"/>
<path fill-rule="evenodd" clip-rule="evenodd" d="M121.481 0.000110755L121.48 0.0559278C121.48 1.93871 123.031 3.465 124.945 3.465C126.859 3.465 128.41 1.93871 128.41 0.0559278L128.41 0L121.481 0.000110755Z" fill="#0965FF"/>
<defs>
<linearGradient id="paint0_linear_1_123" x1="18.9475" y1="57.4875" x2="55.1725" y2="21.2625" gradientUnits="userSpaceOnUse">
<stop stop-color="#0965FF"/>
<stop offset="1" stop-color="#00BAFF"/>
</linearGradient>
</defs>
</svg>
